<?xml version="1.0" encoding="UTF-8"?>
<svg xmlns="http://www.w3.org/2000/svg" version="1.1" viewBox="0 0 2601.4 2601.4">
  <defs>
    <style>
      .cls-1 {
        fill: #fff;
      }
    </style>
  </defs>
  <!-- Generator: Adobe Illustrator 28.7.3, SVG Export Plug-In . SVG Version: 1.2.0 Build 164)  -->
  <g>
    <g id="Layer_2">
      <path class="cls-1" d="M2461.2,1300.7c0,156.7-30.7,308.7-91.2,451.7-29.1,68.8-65.1,135.1-107,197.1-41.5,61.5-89.2,119.2-141.7,171.7s-110.3,100.2-171.7,141.7c-62,41.9-128.4,77.9-197.1,107-143.1,60.5-295.1,91.2-451.7,91.2s-308.6-30.7-451.7-91.2c-68.8-29.1-135.1-65.1-197.1-107-61.5-41.5-119.2-89.2-171.7-141.7-52.5-52.5-100.2-110.3-141.7-171.7-41.9-62-77.9-128.4-107-197.1-60.5-143.1-91.2-295.1-91.2-451.7s30.7-308.6,91.2-451.7c29.1-68.8,65.1-135.1,107-197.1,41.5-61.5,89.2-119.2,141.7-171.7,52.5-52.5,110.3-100.2,171.7-141.7,62-41.9,128.4-77.9,197.1-107,143.1-60.5,295.1-91.2,451.7-91.2s308.6,30.7,451.7,91.2c68.8,29.1,135.1,65.1,197.1,107,61.4,41.5,119.2,89.2,171.7,141.7s100.2,110.3,141.7,171.7c41.9,62,77.9,128.4,107,197.1,60.5,143.1,91.2,295.1,91.2,451.7Z"/>
      <g>
        <path d="M357,1300.7c0,521.2,422.5,943.7,943.7,943.7s943.7-422.5,943.7-943.7-422.5-943.7-943.7-943.7-943.7,422.5-943.7,943.7h0ZM741.7,562.8c14.3-10.9,28.9-21.3,43.8-31.3,48.7-32.6,100.4-60.6,154.9-83.6,58-24.5,117.9-42.9,179.2-55.1,18.6-3.7,37.3-6.8,56.1-9.3,21.8-2.9,43.7-5.1,65.8-6.5-1.2.4-1.9.5-1.9.5l.5,131.6c-6,6.2-10.9,12.5-14.9,18.5,5.8,4.6,10.8,10.8,15.1,17.9l.6,171.7c-49.4,57.8-89,122.1-97.8,179.7,15.1-8.1,28.3-3.7,37.9,6.9,0,0,0,0,0,0,6.5,8.1,11.8,19.7,14.6,30.8,0,0,0,0,0,.1,1.4,6.4,2,13,1.8,19.6,0,.7,0,1.5,0,2.2,0,.7,0,1.4-.1,2.1-.6,8.9-2.4,17.9-4.9,26.5-.1.4-.2.8-.4,1.2,0,0,0,.1,0,.2-.2.7-.4,1.3-.6,2-.5,1.7-1.1,3.3-1.7,5,0,0,0,0,0,.1-.3.8-.6,1.6-.9,2.4h0c-.7,1.9-1.5,3.8-2.2,5.7-.2.5-.4,1-.6,1.5,15.3-32,34-54.9,55.7-61.8l.3,83.3c-14.2-.2-30.3-3.5-47.6-9.2,13.4,5.1,34,18,47.7,35l.2,55.9,36.5-17.5V376.7h44v712.1l36.5,17.2-.2-54.3c15.1-20.3,39.5-32.1,52.3-37.2-19.1,6.7-36.9,10.5-52.4,10.6l-.3-83.8c22.3,6.3,41.6,29.3,57.4,62.1-.2-.5-.4-1-.6-1.5-.8-1.9-1.5-3.7-2.3-5.6h0c-4.6-12.2-8-25.8-8.7-39,0-.9,0-1.8-.1-2.7-.2-6.3.3-12.7,1.6-18.9,0,0,0,0,0-.1,2.7-11,7.9-22.5,14.2-30.8,9.8-11.3,23.3-16.2,38.6-7.9-9.2-58.5-50.1-123.9-100.8-182.3l-.6-163c4.9-9.6,10.9-18,18.3-23.9-4.7-7.1-10.8-14.6-18.4-21.9l-.5-129s-.5-.1-1.4-.4c23.5,1.4,46.8,3.6,69.9,6.7,18.4,2.5,36.6,5.5,54.7,9,61.9,12.1,122.5,30.6,181.1,55.5,53.8,22.8,105,50.3,153.1,82.5,15.3,10.2,30.4,20.9,45.1,32.1,33.7,25.5,65.7,53.5,96,83.8,85,85,151.8,184,198.4,294.2,48.3,114.1,72.7,235.3,72.7,360.3s-24.5,246.2-72.7,360.3c-46.6,110.2-113.3,209.2-198.4,294.2s-62.5,58.4-96.3,84c-9,6.8-18,13.4-27.2,19.8,0,0,0,0,0,0-53.2,37.4-110.3,69-170.7,94.5-63.8,27-129.8,46.5-197.4,58.5,0,0,0,0,0,0-10.8,1.9-21.7,3.6-32.6,5.2-24.6,3.4-49.3,5.9-74.3,7.4l.5-132.8c7.9-7.6,14.2-15.3,19.1-22.6-7.6-6.1-13.9-14.9-18.9-25l.6-161.6c50.6-58.6,91.4-124.2,100.5-182.7-15.1,8.1-28.4,3.7-38-7.1-6.5-8.2-11.8-19.8-14.6-30.9-1.4-6.4-2-13-1.8-19.6,0-.9,0-1.8,0-2.7,0-.2,0-.4,0-.6.5-9.7,2.5-19.4,5.3-28.8.3-.8.5-1.7.8-2.5.3-.8.5-1.7.8-2.5.1-.4.2-.7.4-1.1l.4-1.1s0,0,0,0c.3-.8.6-1.7.9-2.5h0c.7-1.9,1.5-3.8,2.2-5.7.2-.5.4-1,.6-1.5-15.6,32.5-34.6,55.7-56.8,62.1l.3-83.7c14.3.1,30.6,3.4,48.2,9.3-13.5-5.1-34.4-18.2-48.1-35.5l.2-48-36.5,17.2v709.7h-44v-709.8l-36.5-17.5-.2,48.2c-15.1,20-39.2,31.7-51.9,36.7,18.9-6.6,36.5-10.5,51.9-10.7l-.3,83.5c-21.9-6.7-40.7-29.6-56.3-61.8.2.5.4,1,.6,1.5.8,1.9,1.5,3.7,2.3,5.6h0c4.5,11.9,7.9,25.1,8.7,38.1,0,0,0,0,0,0,0,.4,0,.8,0,1.2,0,.7,0,1.4,0,2.2,0,0,0,0,0,.1h0c.2,6.3-.3,12.7-1.6,18.8,0,0,0,0,0,0-2.7,11-7.9,22.7-14.2,31h0c-9.8,11.3-23.3,16.2-38.5,7.9,9,57.4,48.7,121.6,98.1,179.2l-.6,172.9c-4.1,6.7-8.9,12.6-14.4,17,3.8,5.7,8.6,11.7,14.3,17.7l-.5,137.7c-23-1.5-45.8-3.8-68.4-7-10.3-1.4-20.6-3.1-30.9-4.9h0c-68.5-11.9-135.3-31.6-199.8-58.9-59.7-25.2-116-56.4-168.7-93.1,0,0,0,0,0,0-9.7-6.8-19.2-13.7-28.6-20.8-34-25.7-66.3-53.9-96.8-84.4-85-85-151.7-184-198.4-294.2-48.3-114.1-72.7-235.3-72.7-360.3s24.5-246.2,72.7-360.3c46.6-110.2,113.3-209.2,198.4-294.2,30.1-30.1,62-58,95.5-83.4h0Z"/>
        <path d="M2370,849c-29.1-68.8-65.1-135.1-107-197.1-41.5-61.5-89.2-119.2-141.7-171.7s-110.3-100.2-171.7-141.7c-62-41.9-128.4-77.9-197.1-107-143.1-60.5-295.1-91.2-451.7-91.2s-308.6,30.7-451.7,91.2c-68.8,29.1-135.1,65.1-197.1,107-61.5,41.5-119.2,89.2-171.7,141.7-52.5,52.5-100.2,110.3-141.7,171.7-41.9,62-77.9,128.4-107,197.1-60.5,143.1-91.2,295.1-91.2,451.7s30.7,308.7,91.2,451.7c29.1,68.8,65.1,135.1,107,197.1,41.5,61.5,89.2,119.2,141.7,171.7,52.5,52.5,110.3,100.2,171.7,141.7,62,41.9,128.4,77.9,197.1,107,143.1,60.5,295.1,91.2,451.7,91.2s308.6-30.7,451.7-91.2c68.8-29.1,135.1-65.1,197.1-107,61.4-41.5,119.2-89.2,171.7-141.7s100.2-110.3,141.7-171.7c41.9-62,77.9-128.4,107-197.1,60.5-143.1,91.2-295.1,91.2-451.7s-30.7-308.6-91.2-451.7ZM1300.7,2439.8h0c-629.1,0-1139.1-510-1139.1-1139.1S671.5,161.5,1300.7,161.5s1139.1,510,1139.1,1139.1-510,1139.1-1139.1,1139.1Z"/>
        <rect x="1299.7" y="1337.3" width="2" height="32.6"/>
        <rect x="1247" y="1337.1" width="32.6" height="2" transform="translate(-576.2 1285.2) rotate(-45)"/>
        <rect x="1231.5" y="1299.7" width="32.6" height="2"/>
        <rect x="1262.3" y="1247.1" width="2" height="32.6" transform="translate(-523.4 1263.3) rotate(-45)"/>
        <rect x="1299.7" y="1231.5" width="2" height="32.6"/>
        <rect x="1321.8" y="1262.3" width="32.6" height="2" transform="translate(-501.4 1316.2) rotate(-45)"/>
        <rect x="1337.3" y="1299.7" width="32.6" height="2"/>
        <rect x="1337.1" y="1322" width="2" height="32.6" transform="translate(-554.4 1338.1) rotate(-45)"/>
        <path d="M1300.7,1329c15.6,0,28.3-12.7,28.3-28.3s-12.7-28.3-28.3-28.3-28.3,12.7-28.3,28.3,12.7,28.3,28.3,28.3ZM1300.7,1282.2c10.2,0,18.5,8.3,18.5,18.5s-8.3,18.5-18.5,18.5-18.5-8.3-18.5-18.5,8.3-18.5,18.5-18.5Z"/>
        <path d="M724.8,1267.4c7.5,1.5,15.1,3,22.6,4.5-2.2,7.7,2.2,16.2,8.8,20.7,6.6,4.5,15,5.7,23,5.5,2.8,0,5.7-.2,8.1,1.1,2,1,3.4,2.9,4.6,4.8,6.8,10.5,10.2,23.3,9.3,35.8,5.4-11.7,6.8-25.2,4.2-37.8-.6-2.9-1.6-6-4-7.8-2.8-2.1-6.7-1.8-10.1-2.4-3.5-.7-7.2-3.7-6.1-7-14,3.1-29.7-5.8-34.2-19.5-1.7-1.4-4.3-1.4-6,0-.4-.4-1.1-.4-1.7-.3-5.2.2-9.4-4.8-10-10-.6-5.1,1.5-10.2,4.1-14.7-9,2.1-19.5-2-23.8-10.2-4.3-8.2-1.1-19.9,7.3-23.9-4.7-3-9.6-6.2-12.5-10.9s-3.4-11.5.5-15.5c-10.3-.9-16.8-14.6-11.1-23.2,1.9-2.8,4.8-5.5,4.1-8.8-.3-1.5-1.4-2.7-2.4-3.9-3.1-3.5-6.2-7.3-7.7-11.8s-.9-9.9,2.5-13.2c-18.8,2.5-36.1-10.3-48.9-24.2-8.1-8.8-8.1-24.2-18.3-30.3-.9-.6-3.3.4-4.2,1.1-8.5,7.2,2.5,21.6,9.2,30.5,11.4,15,24.2,30.9,42.3,35.9,1.5,6.5,7.2,11.9,13.8,12.9-3.4,14.2,1.2,29.9,11.6,40.1-3.7,1.4-3.6,6.9-1.4,10.2,2.2,3.3,5.6,6,6.6,9.8,1.4,5.6-2.9,11.1-2.8,16.9.2,11.8,17.7,18.2,16.8,29.9-.3,4.4-3.3,9.2-.7,12.8,1.5,2,4.1,2.7,6.6,3.2h0Z"/>
        <path d="M1909.5,969.4c.6,0,1.2-.1,1.8-.4.7-.3,1.3-.8,1.7-1.5.4-.7.7-1.5.7-2.3s-.2-1.7-.7-2.3c-.4-.7-1-1.2-1.7-1.5-.5-.2-1.1-.4-1.8-.4s-1.2.1-1.8.4c-.7.3-1.3.8-1.7,1.5-.4.7-.7,1.5-.7,2.3s.2,1.7.7,2.3c.4.6,1,1.2,1.7,1.5.5.2,1.1.4,1.8.4Z"/>
        <path d="M805.8,1227.1s-3.9-.4-5.8-2.5c-1.4-1.5-1.6-5.4-.2-6.8,1.4-1.4,4.5-.4,5.3-2.3,1.6-3.7-2.6-7.7,1.6-8.2,2.1-.2,4.2.4,6,1.5,2.8,1.7,3.9,3.9,4.3,7.1.2,1.9,0,4.3-.2,7.6-.2,2.4-4.1,4.6-3.4,6.3,1,2.4,4.7,1.1,3.9,3.2-1.1,3.1,0,7-1.5,9.7-2.9,4.8-9,8-13.4,12,6.8,3,14.7,0,21-3.9,2.7-1.6,3-3.7,4.8-6.2,1.6-2.1,5-4.4,5.7-7,.6-2.4-3.4-5.1-3.8-7.6-.5-3.2,1.2-5.8.8-9-.3-2.9-2.6-6.3-4-9-4.2-7.7-5.3-10.4-13-14.5-3.3-1.7-6.6-1.8-10.2-1-4.1.8-5.2,2.1-7.4,5.7-3.3,5.4-4.1,8.3-3.1,14.6.3,1.8,1.2,10.9,3.1,12.5,3.7,3.1,9.4-2,9.4-2h0Z"/>
        <path d="M714.9,1493.8c1.3,0,2.7.3,4,.4,4.5.4,9.1-2.3,11.1-6.3,2.3-4.8.3-15.7-6.8-13.5.5,3.3,0,19.9-7.9,12.7-.7-.7-1.4-1.7-2.4-1.6-.9,0-1.4,1.1-1.7,1.9-2,5.3-4.1,10.6-6.1,15.8,2.1-4.3,5-9.3,9.8-9.5h0Z"/>
        <path d="M855.9,1231.3c4.2,5.5,7.5,17.8,2.8,22.8-1.3,1.4-6.6-.8-5.9.9.3.7,1,1.2,1.7,1.7,4.2,2.7,8.7,5.1,11.8,8.9,3.2,3.8,4.7,9.5,2.2,13.8.7-.8,2.1,0,2.1,1.1,0,1-.7,1.9-1.4,2.7-3.5,3.9-6.6,9.1-5,14.1.2.7.5,1.3,1.1,1.7,1.3.9,3,0,4.4-.8,2.8-1.4,6.1-1.8,9-3,2.9-1.2,5.7-4,5.3-7.1-1.8,1.3-4.9-.2-4.9-2.4,0-2.3,2.9-3.9,4.8-2.7,1.5-1.1-1-2.9-2.8-3.5-4.4-1.3-7.4-6.1-6.8-10.6,1.9,2.6,5.1,5.4,7.8,3.6,2.9-2,.7-6.5-1.6-9.2,4.1-1.7,6.2-7,4.4-11,.8,1.1,2.7,1.1,3.6,0,1-1.2.7-3.2-.2-4.5-.9-1.3-2.4-2.2-3.7-3-5.5-3.4-12-3.8-15.9-8.5-6.9-8.1-9.2-15.6-17.9-22.2-2.8-2.2-9.2-8.3-9.2-8.3,0,0-.4,2.6.3,6.1,1.6,9.4,8.9,12.5,14.1,19.3h0Z"/>
        <path d="M760.1,1411.3c2.2-1.2,6.5-9.8,6.2-12.3,0,0-7.5,6.2-8.9,5.7-7.3-2.5-9.3-13.3-6.4-24.3-.3,1.8-5.2,4.9-6.3,8.8-.7,2.3-1.2,7.7-1.6,8.7l1.8,13.3c-.4,6.9-5,13.1-4.4,20,.6,6.9,6.6,14.3,8.3,21.5,1.3-4.9.3-10.1.5-15.1.2-5.1,2.2-10.7,6.9-12.6,3.8-1.5,6.9-2.9,10.1-5.5-6.3-1.8-14.9-1.8-16.1-8.3,1.9,1.5,7.8,1.5,10,.3h0Z"/>
        <path d="M759.8,1131.6c-.4,1.7-.8,3.7,0,5.3.9,1.7,1.9,0,2.2-1.1.8-2.7,1.9-6.5,3.3-9.3,1.5-3.4,3.6-7.2,3.3-11-.3-6.4-6.4-11-12.3-12.3-1.7-.3-2.8.5-2,2.1h0c2.7,4.9,8.7,8.7,9,14.8.2,4-2.5,7.7-3.5,11.4h0Z"/>
        <path d="M753.8,1144.3h0c2.4-1.6-2.2-8.2-3.6-9.6-1.7-1.9-4.9-1-4.4,1.8.2,1.9,5.9,8.4,7.9,7.9h0Z"/>
        <path d="M662.1,1416.6c1,1,1.5,2.3,2,3.5,3.3,8.2,7.9,15.8,12.5,23.3.8,1.2,1.5,2.5,2.5,3.6.8.9,1.8,1.8,3.1,1.9,1.2.1,2.6-.8,2.5-2.1,3.4,3.1,8.2,4.8,12.8,4.4,4.6-.4,9-3.1,11.4-7.1-2.5-.1-4.9-.9-7-2.2-1-.6-2-1.7-1.5-2.7-2.6.6-5.3,1.2-8,1-4-.3-7.6-2.6-11-4.8-2.5-1.7-5.1-3.5-7-5.9-1.4-1.8-2.4-3.9-3.4-5.9-1-2-1.9-4.1-2.6-6.2-1-3.1-1.3-6.3-1.7-9.5-.3-2.5-.2-5.3-1.6-7.5-2.2,3.6-3.7,7.8-5.5,11.6-.6,1.2-1.2,2.5-1.3,3.8,1.2-.7,2.8-.2,3.7.8h0Z"/>
        <path d="M815.8,1129.8c2,3.6-1.2,6.2-1,6.3,1.5.9,1.5.5,3.1-.3,1.9-1.1,1.8-3.9,3.3-5.4,2-1.8,7.6.8,9-1.5.6-1-2.8-1.3-4.9-2.7-1.5-1-2-2.6-2.5-3.3-.8-1.2.9-2.6-.3-3.5-1.2-.8-2.2-1.9-1.5-.7,1.6,3.6-3.9,6.4-7.4,7.1-2.8.6-5.4-.2-8.2,0-2.4.2-4.9-1.5-6-3.7,2.5,8.8,14.6,4.4,16.4,7.6h0Z"/>
        <path d="M1081.4,1827.9l-73.7,22.9,25.4-61.7c-43.6,11.9-90.4,16.8-136.1,18.9,26.4,26.7,44.6,77.4,8,103.5,61.5-19.9,94.4,37.1,101.8,65.5,0,0-44.8,25.2-81,10.3-23.1-9.5-37.9-10.9-16.5,1.1,17.1,9.7,49.3,97.6,40.9,128,1.6.7,3.3,1.4,4.9,2.1,5.2,2.2,10.4,4.3,15.6,6.4,15.5-27.4,100.4-67.1,119.3-61.9,23.7,6.5,12.2-2.9-10.9-12.4-36.2-14.9-50.2-64.4-50.2-64.4,24.8-14.8,88.9-32.3,118.4,25.3-7.6-44.3,41.1-67.4,78.7-67.7-30.9-33.7-60.6-70.2-83.2-109.4l-25.4,61.7-36.1-68.3h0Z"/>
        <path d="M978,1971.9c4.8-4.7-4.4-12.8-10-16.7-4.3-6.7-79.8-22.2-52.5-2.8,19.7,10.8,46.3,35.3,62.4,19.5h0Z"/>
        <path d="M1410.7,1582.5c-1.2-.4-2.4-.8-3.6-1.2,1.3.5,2.5.9,3.6,1.2Z"/>
        <path d="M482.7,1646.2c44.7,105.7,108.7,200.7,190.3,282.2,1.5,1.5,3,3,4.5,4.5l45.2-45.9c33.2,14,64.3,14.3,86.4,9.9-3.4-30.2,21.1-70.2,41.9-88.3-16.7-.3-33.1-1.1-48.9-2.3l51.5-52.4c100.2,2,211.5-13.8,274.7-60.1-16.5-5-22.7-17.5-21.9-32.1h0c1.2-10.3,5.7-22.3,11.5-32,0,0,0,0,0,0l12.5-15.1c.4-.4.9-.8,1.3-1.2.2-.2.4-.4.6-.6,0,0,0,0,0,0,7.7-6.9,16.5-12.7,25.7-17.5.2-.1.5-.3.8-.4,0,0,.1,0,.2,0,0,0,.2,0,.2-.1.7-.4,1.4-.7,2.1-1.1,0,0,.1,0,.2,0l1.1-.5c0,0,.1,0,.2,0,.3-.2.6-.3.9-.4.8-.4,1.6-.8,2.4-1.1h0c1.9-.8,3.7-1.7,5.6-2.4,0,0,0,0,0,0,.5-.2.9-.4,1.4-.6-61.3,21.6-109,13.7-111.7-52.5,47.3-43.9,86.2-18.5,114.5,38-10-22.2-18.9-75.5,10.3-96.9l-40.6-17.2-64.2-158.9,64.2-158.9,45.3-19.2c-7.4-4.8-14.3-12.2-19-23.4-12.3-29.5-.4-64.1,6.2-79.6-28.2,58.7-67.5,86.5-116,41.7,2.5-66,49.9-74.3,111.6-52.8-.5-.2-1-.4-1.5-.6-1.9-.8-3.7-1.5-5.6-2.4h0c-11.9-5.4-23.9-12.6-33.8-21.4-.7-.6-1.3-1.2-1.9-1.8-4.6-4.2-8.6-9.1-12.1-14.2q-2.3-3.4,0,0c-5.9-9.7-10.5-21.6-12-32.1,0,0,0,0,0-.1-1.1-14.9,5.1-27.9,21.7-32.8-63.3-46.2-174.7-61.6-274.9-59.4l-51.6-52.2c15.8-1.3,32.2-2.1,48.9-2.4-20.8-18.1-45.5-57.9-42.1-88.2-22.1-4.4-53.2-4-86.4,10.1l-43.4-43.9c-2,2-4.1,4-6.1,6-81.5,81.5-145.5,176.5-190.3,282.2-46.3,109.4-69.8,225.7-69.8,345.6s23.5,236.1,69.8,345.6h0ZM891.3,1147.1c1.2.6,1.4,1.4,1.6,2.7.3,2.3-.1,4.8,1.4,6.5.6.7,2.1,2,2.8,1.6-1.8,1.3-5.8.2-7.8-.9-1.8-.9.2-1.9-.9-3.6-2.1-3.3-15.4-3.1-16.1-5.7,6.2.7,10.8,2.5,17.5-1.1.4-.2,1.1.3,1.5.5h0ZM798.2,1095c.2-.9.4-1.8.3-2.8,0-1.5-.1-3.5-.2-5.5,0-2.2-.1-4.5-.1-4.5,0,0,.9,3.3,1.1,4.2,1.1,5.3.5,7.3,6.8,8.5,2.9.6,8.2.8,9-2.7,0-1.6-1.1-3-1.7-4.5-1-2.5-.7-4.9-1.7-7.3-.6-1.6-.5-3.2-1.3-4.2-1.1-1.4-3.5-1.3-4.6.2-1.3,1.7,1.7,5.8,3.6,6.9.7.4,1.3.6,1.3.6-1.9.2-9.5-4-8-9.6.3-1.2.9-2.2,1.8-3,2.4-1.8,6.7,1.1,9.4.9,1.2-.1,1.2-1.4,1.8-2.3.7-1.4,2.7-1.9,3.8-.7.9.9.8,2.8,2,4,.7.7,2.6,1.4,2.6,1.4,0,0-5.8-.1-6.9,1.7-.8,2.2-.8,5.1,1,7.1,2.8,2.9,1.5,4.1,1.8,7.6.4,2,1.7,2.4,3.2,1.1,1.2-.9,3.2-1.8,4.8-3.1,1.8-1.4,3.2-3.2,4.4-5.1.7-1.1,2.1-3.9,2.1-3.9,0,0,.4,1.5.6,3,.4,3.9.3,8.5,0,12.2h0c-.3,3.6,1,8-1.8,10.6-.8.7-1.8,1.2-2.8,1.1-1.9-.3-3.7-2.2-3.8-4.2,0-3.8,3.6-6.6,3.6-10.4-.2-2.3-2.8-.3-3.9.3-3.3,1.9-3.2,5.8-2.9,9.2,0,.4,0,1.2-.2,1.3-.9-.2-1.8-1.7-2.9-2.4-7.6-6.7-15.2,2.3-21.8-1-1.5-1-.9-2.5-.6-4.3h0ZM731.2,1109.2c1.2-2,2.7-2.3,3.6,0,.5,1.9,2.2,3.5,2.9,4.9.4,1,.3,2.1.8,3.1,1.6,2.5,4.7,4,7.3,5.4,3.9,1.8,7.5,4,11.2,1.9,2.6-1.7,2.6-6.1-.2-7.7-1.2-.8-2.7-1.3-3.8-2.2-2-1.5-3.1-3.9-4.5-6-1-1.9-3.6-3.2-4.3-4.9-.4-.8-.3-1.9-.1-2.8,1.7-9.8,0-20.8,6.7-28.8,5.1-6.7,16.9-12.4,24-5.7,1.9,2,2.6,4.7,2.7,7.7,0,.8-.5,4.1-.5,4.1,0,0-2.2-2.9-3.1-3.6-1.8-1.3-4-1.8-6.2-2-7.7-.7-14,7.4-13.5,14.8,0,1,.4,2.2,1.1,2.9,1.3,1.4,2.8.1,3.1-1.4.4-1.4.1-3.1.9-4.3.7-1,2.2,0,4.3-.2,1.6,0,4.4-.6,5.4.9.4,1.3-1.8,2.8-2.9,3.6-3.2,1.7-4.4,2.2-2.8,5.3.6,1.2,1.2,2.3,2.2,3.2,1.1.9,3.1,2,4.3,3.3,1.3,1.3,1.5,3,2,4.7,1.1,4.8,6.3,3,6.4,8.1-.3,3.9-2.9,7.2-4.5,10.7-1.6,3.1-2.8,6.1-4.6,9.1-1.1,1.8-2.3,3.5-3.5,5.3-4.7,8-7.2,16.6-7.7,26.3v.2c-3.2,29.8,6.1,53,26.5,75.4-1.2-.5-2.9-1.8-5.7-3.5-6-3.9-12.8-8.8-18-14-9.3-8.8-20-30.6-20.7-36.6-.3-1.6-1.5-3.5-2.3-5-1.5-2.5-3.6-5.4-.9-7.6,3.7-3.3,7.2-7.9,10.4-11.6.9-1,1.9-2.1,2.3-3.3.4-1.1,0-2.1-1-2.4-3.9-.7-10.9,4.5-13.6,7.1-1.1,1.1-2.2,2.2-2.2-.3,0-1.6-.3-3.7.7-5,3.8-4.2,11.2-3.8,14.5-8.6,1-1.6,1.1-4.1-.3-5.5-3.2-3-11.3,2.3-13.8,4.8-1.6,1.7-3.5,2-4.5,0-.8-1.6-.3-3.8-.1-5.7,0-1.3.6-2.7,2.2-2.8,6.6,0,7.9-2.2,11.5-7,.2-.3.9-1,.8-1.3-.1-.2-1.1,0-2.4.3-2,.4-4.1.5-6.1.4-1.9-.2-4.1.1-5.2-1.1-1-1-1-2.6-1.3-3.9-1.2-6.2-.5-13.2,2.9-18.4h0ZM505.7,1190.7c3.2.3,7.6,2.5,10,4.3,4.6,3.5,7.5,6.5,7.8,12.7.4,9.4-4.1,18.6-4.5,28.1s1.5,23.8,10.4,26.8c5.2,1.8,12.3,5,17.3,2.9,7.3-3.2,14.7.1,20.6,4.6,22.7,17.3,43.9,38.9,54.8,64.7-3.8,13.4-8,26.8-14.5,39.1-.8-7.9-2.9-15.7-6.2-22.9-2.7-5.9-6.3-12.2-4.8-18.6-5.4,5.3-7.4,13.9-4.8,21,1.5,4.2,4.5,7.9,5.7,12.2,2.6,9-2.7,18.3-7.8,26.2-5.1,7.9-10.5,17.1-8,26.1-.8-2.8,3.5-7.1,5.5-8.2,1.8,6.2,13.7,27.4,11.7,9.7-.6-5.3-11.1-28.1,2.3-27.7,1.2,0,2.3.4,3.4.2,1.4-.4,2.3-1.7,3.1-3,5.9-10,11.7-20.2,15.3-31.2,1.3-3.9,2.3-7.9,2.9-12,1.2,4,2.1,8.2,2.7,12.4,4.9-3.6,24.5-10.3,29.8-7.2-18.2,8.8-41.7,36.8-38,56.7,1.4,7.4,14.3,27.2-2.3,26.1-.3-.8,2.7-2.7,2.8-4.6,0-1.9-2.7-4-3.1-4.8-6,2-7.7,10.9-3.5,15.5,4.2,4.7,12.4,4.4,17,.1,4.6-4.3,5.8-11.5,3.8-17.4-1.1-3.2-3.1-6.3-2.9-9.8.2-3.8,3-6.8,5.4-9.8,13.5-16.9,18.6-42.4,38.6-50.6,13.2-5.4,30.4-1.7,41.8-8.5-4.5,1.9-10.2,1.4-13.8-2-5.3-5.1-4.6-15,1.4-19.2,3.5-2.5,9-4.7,7.9-8.8-3,2.1-6,4.2-9,6.3-2.9-2-2.1-6.6,0-9.5,2.1-2.9,5.1-5.3,6-8.7,1.8-7.1-7.4-12.9-14.5-11.2-7.2,1.7-12.3,7.7-17.6,12.8-5.3,5.1-12.3,9.9-19.4,8.2.2-5.5,1.9-10.9,4.9-15.6-.9.6-1.8,1.1-2.8,1.4-2.2.7-4.9,0-5.8-2,7-9.2,14.5-18,22.6-26.2,3.1-3.2,6.3-6.3,10-8.8,3.3-2.2,7-3.9,9.5-6.9,2.6-3,3.5-7.9.8-10.7-3,6.6-9,11.8-16,13.9-7.3,2.2-16.3,1.5-21,7.6-1.6,2-2.4,4.6-4.1,6.5-2.5,2.8-6.7,3.8-10.2,2.5-3.5-1.4-5.9-5.1-5.7-8.8,0-2.4,1.1-5,0-7.1-1.9-3.6-7.2-2.1-11.2-1.2-9.9,2.4-21-2.3-26.2-11,15.3-.5,30.7-1,45.5-5,14.7-4.1,28.9-12.1,37.4-24.8-4.7,3.5-11.3,1.3-17.2,1.4-8.4.2-15.6,5.5-23.1,9.3-7.5,3.8-17.2,6-23.7.7-3.4-2.8-5.4-7.2-9.4-9.1-9.7-4.3-19.4,10.5-29.7,8-8-2-9.7-13.8-4.6-20.3,5.1-6.5,13.8-8.6,22-9.7,10.5-1.4,21.2-1.6,31.8-.8,12.2.9,25.8,2.7,35.2-5-12.5.7-25.2-.8-37.2-4.4-1.3-.4-2.6-.8-3.6-1.8-2.4-2.4-1.1-6.8-2.9-9.6-2.3-3.5-7.6-2.7-11.8-2.1s-10-.8-9.9-5c.1-3.9,5.9-6.8,4.5-10.5-5.7-.3-11.7-.7-16.7-3.5-5-2.7-9-8.5-7.6-14.1,1.3-5.3,6.9-8.7,12.4-9,5.5-.3,10.7,1.9,15.6,4.4,3.4,1.8,7.9,3.6,10.7,1-2.2-11.8-11.9-21.1-23-25.5-5.6-2.2-11.7-3.5-16.2-7.5-4.5-4-6-12.1-1.2-15.6-4.1.3-8.3.5-12.2-.9-3.8-1.4-7.2-5.1-6.9-9.2.3-4.4,4.1-9.7.6-12.3-2.2-1.7-5.5-.3-7.9-1.6-2-1-2.9-3.3-3.5-5.4-3-10.8-2.6-22.5,1-33.1,5.2,10.7,14.5,18.7,23.5,26.4,7.6,6.5,15.2,13,22.9,19.6,1.3,1.1,2.7,2.3,4.4,2.5,3.5.6,6.6-3.3,6.2-6.8s-3.1-6.4-6.1-8.2-6.5-2.9-9.7-4.5c-8.3-4.4-14.5-14.5-18.1-23.4,5.6,2.3,11.3,5.8,13.2,5.9,1,0,3.3.3,4.2,0,9.8-4.5-7.4-10.9-9.9-11.8-3.1-1-12-3.8-13.2-4.1-19.3-6-1.9-49.4-4.9-59.6,9,11.5,15.7,31.7,21.8,39.3,15.3,19,30.6,38,45.9,57,1.6-3.7,1.5-7.9.7-12.2,2.5,1.4,5.4,3.2,8.8,5.4,13.9,9.1,21.3,27.9,38.1,32.6,1.2.3,2.5.6,3.7.2,2.4-.8,3.3-4,2.5-6.4-.8-2.4-2.8-4.2-4.7-5.9-3,1-5.9,2.4-8.4,4.2-2.4-2.1-1-5.9-.1-8.9.9-3,0-7.6-3-7.4-1.5,0-2.6,1.3-3.7,2.2-1.2.9-2.9,1.5-4,.5.1-3.8.2-4.9.2-8.7,0,3.4-14.1-5.4-14.8-5.9-2.4-1.9-10.7-8-16.8-10.2-.6-2.6-2.9-6.8-3-9.2-.2-5.7,7-15.7,6.4-21.3,7.7,7.7,14,19,22.3,27.6,10.2,10.7,22.6,18.5,34.3,25.3,8.2,4.8,17.2,9,22.4,16.8,8.3,12.2,4.8,28.4,4,43.2-.4,6.9,0,13.9.9,20.8.4,1.9.8,3.9,1,5.9,0,0,0,.1,0,.2.4,2,.9,4.1,1.4,6.1.1.5.3,1,.4,1.5,2.4,8.7,7,15.6,10.5,23.7,0,0,0,0,0,.2,1.9,4.4,2.7,9.4,3,14.6,5.8,11.7,12.8,22.8,20.9,33,1.1,1.4,2.3,2.8,3.5,4.2,9.4,10.6,21.7,19.8,35.5,18.4-2.8-1.9-17.1-17.8-22.6-36.7-6.1-14.6-7-32.2-5.9-47.9,0-.9,6.7-26.9,11.8-36.9,2.4-4.8,5-9.8,4.4-15.3-.2-1.8-2.6-3.4-4.3-5.4-2.4-2.9-4.2-6-4.4-6.3-.7-1.5,0-4.2-.3-5.9.9,1.8,2.4,4.2,4.3,4.8-1.4-5.8-.5-12,2.5-17.1-2.1,14.2,12.8,28,26.8,24.8,3.1-.7,6.2-2.1,9.4-1.6,9,1.4,11.8,16.7,20.9,16.1,2.4-.2,4.5-1.5,6.8-2,10.5-2.1,18.5,13.4,28.9,11.2,2.7-.6,5.1-2.3,7.8-2.2,6.3.2,6.3,7,5.7,15.1-.3,3.6-2.2,4.2-3,4.3-5.2-2.1-9.6,1.6-14.2,0,1.8,1.4,6.3,9.6,9.3,9.1,4.1-.6.2,5.4-2.4,7.2-5.2,3.6-18.2,0-17.5-6.3-4.3.2-10.6-.3-15.8-.3-2.6,0-4.9,2.6-8.5,1.3-2-.7-2.2,1.2-2.9,4.2-8.5,5.3-18.3,6.7-25.7,2.6-2.2-1.2-4.4.5-6.5-.4-7.9-3.6-12.4-7.1-12.8-16,.5,11.2.5,13.9,9.7,23.4,18.6,19.2,56.3,15.1,67.7,39.3,2.5,5.3,3.3,11.4,6.5,16.2,3.3,4.8,10.7,7.8,14.9,3.7,1.3-1.3,2-3.1,2.7-4.8,4-10.8,6.3-26.5,5.2-38,13.3-2,20.8-10.7,29-21.3,15.1-19.6,40.3-38.1,62.7-48.7-1.1,17.4-10.5,33.6-21.5,47.1,0-5.9-2.7-8.4-2.7-14.3-.8-3.4-6.5-1.1-7.2,2.3s2.8,8.4,1.2,11.5c-2.4,4.6-11,3-16,4.7-5,1.6-3.9,11.1,1.2,10.6-13.8,1.2-26.5,14.9-28.6,28.6-.8,5.2,2.8,10.3,3.3,15.6.8,8.5-.9,17.2.6,25.6.8,4.3,1.3,8.9-.9,12.7-2.2,3.7-8.3,5.2-10.8,1.6.2,11.2-5.1,22.4-13.9,29.4,17.7-2.3,34.7-9.5,48.6-20.6,8.1-6.4,17.4-14.7,27.4-12,10,2.8,13.8,14.8,15.6,25,2.8,16.1,6.7,32.2,7.8,48.4.4,5.7-1.2,12-4.2,17-2.7,4.5-7.6,7.2-11.7,10.6-7.6,6.2-9.4,15.6-10.7,25.3-10.6-8.5-20.3-22.1-20.4-35.7,10.8.9,26.1-2.3,25.2-13.2-.2-2.7-1.6-5.1-2.3-7.7-2.1-7.9-3.7-16.6,4-19.3-5.1-7.7-4.8-15.2-11.4-21.6-12.3,19.1-34.9,28.7-56.6,35.1-21.5,6.4-44.2,11-62.7,23.8,2.8-1.2,5.5,6.7,5.5,6.7,0,0-15.1.3-19.1,1.2-13.7,3-18.5,10.8-32.1,13.8-7.8,1.8-16.8,4.3-20.1,11.7-4.6,10.2,5.2,21.2,15.1,26.5,9.9,5.3,21.8,9.6,26.1,20,5.1,12.6-4.2,26.1-12.9,36.5,18.5-1.7,37.1-3.4,55.6-5.1-.4,1.1.7,4,2.7,4.6,13.6,4.1,27.1,8.1,40.7,12.2-12.1,13-28.8,21.6-46.4,23.9,3.6-3.1,1.8-14.6-1.7-17.7l-13.5,10.7c-2.3-5.7-9.9-6.6-15.4-9.3-9-4.4-19.7-3-29.5-.8-13.8,3.1-27.4,7.6-40.3,13.3,4.8-9,6.1-19.8,3.5-29.7-7.6,11.1-12.3,24.2-13.4,37.6-3.3-3.5-9.2-4.2-13.2-1.5-4,2.7-5.6,8.4-3.6,12.8-4.2-6.9-14.8-3-21.5,1.5-3.2,2.2-6.8,4.9-7.1,8.8-.1,2.3.9,4.5,2,6.5,9,17.7,13.8,36.7,22.9,54.4,4,7.8,12.4,14.8,17.6,22.2,3.2,4.6,3.5,9.5,5.9,14.3-18.3,2-37.4-3.4-52-14.7,4.9-5.4,12.2-12,10.9-18.8-.7-4.1-8.9-8.3-10.2-12.5-2.6-8-1.6-15.9-7-22.4-9.8-11.9-24.3-25.1-38.5-19,9.5-5.2,11.1-15.3,17.8-23.8,4-5.1,11.3-7.6,14-13.4,3.1-6.8,4.7-15,2.8-22.2-2-7.2-5.8-13-13.1-11.3-7.5,1.8-11.1,10.4-11.6,18-.4,7.6,1.2,15.4-.6,22.9s-9.1,14.6-16.4,12.2c-7.9-2.5-9.2-13.7-5.6-21.1-10.9,3.4-11.3,5.9-17.7-3.6,3,1.8-6.1-4.1-2.5-4-.1-2.6-.6-8.4-.7-11-.3.5-.7.9-1.1,1.2-.3.4-.7.8-1.1,1.2-3.2,3.1-8.4,3.4-12.6,1.9s-7.7-4.5-11.1-7.4c-2.2-1.8-4.4-3.8-5.7-6.3-2-4.1-1.1-9.4,2.2-12.6,1.2-1.2,2.7-2.1,4-3.2,0-.5-.1-.9,0-1.4.1-2.1,1.6-2.9,3.2-3.3.3-.9.5-1.9.6-2.8-16.9-7.2-29-19.5-26.7-38,1.1-8.9,18-17,14.7-27.8-1.4-4.4-11.3-7.7-7.3-13.1,4.2-5.6-4.2-11-6-17.3-2.8-10.2-16.6-23.2-26.8-20.4-8.1,2.3-5.9,9.2-3,16.8,3,7.9,10.1,13.8,11.3,22.1,1.2,7.8.8,13.1.2,18-.4,3.6,0,6.8-3.5,11.3-1.4,1.8-6.2,5.2-8.4,5.1-2.1-.1-3.3,1.1-10.2-1-2.3-.7-4-2.2-5.4-3.6-2.9-3-4-6.8-2.8-11.6,1.8-7.2,13.2-10.8,16.5-4.2-2.1.4-5.8,1.2-6.8,2.6-2,2.7.3,7.1,6.6,10,5.9,1.4,6.5-1.7,7.1-5.2,1.4-8-2.8-16.8-6.1-26-3.2-9.1-7.7-17-13.8-22.5-6.2-5.5-9.5-9.9-13.1-17.4-1-2.2-1.7-5.8-1.7-8.1-.3-10.2,5.6-20.7,15.9-23.2,6.9-1.7,14.4.6,20.6,4.9,5.2,3.6,9.2,8.8,12.7,13.6-1.8-4.2-.4-13.2,2.6-16.6-4.1-2.8-8-2.3-12.1-3-5.8-1-11.9-2.7-18.6-5.3-7.2-2.8-8.3-8.2-11.1-15.4-1.6-4-6.1-3.6-8.5-7.6-2.9-4.8-3.5-14.1-3.1-19.3.9-9.6,6.5-19.5,5.8-29-.6-7.5-1.5-13.7-8.6-16.3-4.8-1.8-6.3,0-6.7,5.2-2.4-8.3-.9-13,7.7-12.3h0Z"/>
        <path d="M1187.6,1975c-9.1,12-14.7,32.1-5.6,45.5,1.9,2.2,4.6,3.6,7.3,2.6-10.8-25.6,32.8-33.7,48.9-43.3-7.2-22.4-37.9-22.2-50.7-4.8h0Z"/>
        <path d="M1081.1,2161.1c8.4,2.1,16.9,4.2,25.4,6.1,22-19.6,73.1-39.5,119.3-44.4-16.3-10.1-32.3-22.6-46.2-35.5-25.9,38.9-66.5,58.2-98.5,73.8h0Z"/>
        <path d="M1118.1,2112.1c22.1-7.4,15.3-18.7-3.3-24.2-11.7-3.3-24.2-3.3-36.5-1.5-23.8,3.6-48.3,11.9-66.8,26.9-5,4.4-6.9,7.1-4.7,8.8,2.8,2.2,11.5,3.1,26.1,3.4,26.1.6,62.2-4.9,85.1-13.3h.2c0,0,0,0,0,0Z"/>
        <path d="M867.2,1890.1c1.1,2.4,3.7,3.4,6.4,3.3h0c4.2.2,9-2.3,13.5-6.5,0,0,0,0,0,0,8.4-7.3,13.8-19.3,15.2-29.6.5-3.5.4-7.1-.3-10.5,0,0,0,0,0,0-1.1-6.4-4.2-12.6-9.9-17.7-2.4-2.1-5.2-3.8-8.1-5,0,0-.2,0-.2,0-4.9-2.1-10.4-2.6-16-.9-.4.1-.7.2-1.1.3-1.2.4-2.4.9-3.6,1.5,4.7,18.2,29.9,54.6,4.2,65.2h0Z"/>
        <path d="M1623.3,624.9c-4.8,4.7,4.4,12.8,10,16.7,4.3,6.7,79.8,22.2,52.5,2.8-19.7-10.8-46.3-35.3-62.4-19.5h0Z"/>
        <path d="M1231.3,2004.9c-5.8-1.2-9.1,6.4-12.4,10.1-6.2,8.4-12.5,16.9-18.8,25.3-3.5,4.7-10.1,9.8-2.8,12.8,1.9,1,4,1.2,6.3.8,0,0,.2,0,.3,0,5.3-.9,10.5-5.1,15-10.2q3-3.4,0,0c0,0,0,0,.1-.2,6.2-6.6,11.6-15.2,14.1-22.7,0,0,0-.1,0-.2,2.1-5.4,3.2-12.4-2-15.6h0Z"/>
        <path d="M1071.4,1997.9c-6.6-1.2-18.9-1.9-18.8,4.8.3,22.6,36.4,24,58,30.2,33,5.6-31.4-36.6-39.2-35h0Z"/>
        <path d="M1404.7,2053.3c7.3-3,.6-8.1-2.9-12.8-6.3-8.4-12.5-16.8-18.8-25.2-3.2-4.8-11.8-16.4-15.5-6.1-3.5,13.4,20.5,50.6,37.2,44.1Z"/>
        <path d="M1519.9,1300.7l-64.2,158.9-41.4,17.6c5.9,4.7,11.2,11.3,15.1,20.6,12.3,29.5.4,64.1-6.2,79.6,28.2-58.7,67.5-86.5,116.1-41.7-2.5,66-49.9,74.3-111.6,52.8.5.2,1,.4,1.5.6,1.9.8,3.7,1.6,5.6,2.4h0c11.7,5.3,23.5,12.3,33.3,21,.8.7,1.7,1.5,2.5,2.2,4.5,4.2,8.6,9.1,12.1,14.2,0,0,0,0,0,0,6,9.7,10.6,21.7,12,32.2,1.1,14.9-5,27.9-21.7,32.8,63.3,46.2,174.7,61.6,274.9,59.4l51.6,52.3c-15.8,1.2-32.2,2.1-48.9,2.4,20.8,18.1,45.5,57.9,42.1,88.2,22.1,4.4,53.2,4,86.4-10.1l45.7,46.2c1.3-1.3,2.6-2.5,3.8-3.8,81.5-81.5,145.6-176.5,190.3-282.2,46.3-109.4,69.8-225.7,69.8-345.6s-23.5-236.1-69.8-345.6c-44.7-105.7-108.7-200.6-190.3-282.2-2.2-2.2-4.5-4.5-6.8-6.7l-42.9,43.7c-33.2-14-64.3-14.3-86.4-9.9,3.4,30.2-21.1,70.2-41.9,88.3,16.7.3,33.1,1.1,48.9,2.3l-51.5,52.4c-100.2-2-211.5,13.8-274.7,60.1,16.4,5,22.7,17.5,21.9,31.9-1.2,10.4-5.7,22.4-11.6,32.2-3.5,5.4-7.8,10.6-12.5,15.1-7.4,7.1-16.2,13.1-25.3,18.1-.6.3-1.2.7-1.8,1-.2.1-.5.3-.7.4-.2,0-.3.2-.5.3-.3.1-.5.3-.8.4-.6.3-1.2.6-1.8.9-.8.4-1.5.7-2.2,1.1,0,0,0,0-.1,0-.3.2-.7.3-1,.5-.5.2-.9.4-1.4.6h0c-1.9.8-3.7,1.7-5.6,2.4,0,0-.1,0-.2,0-.4.2-.9.4-1.3.5,61.3-21.6,109-13.7,111.7,52.5-47.3,43.9-86.2,18.5-114.5-38,10.1,22.4,19.2,76.9-11.4,97.7-.3.2-.6.5-.9.7-.7.5-1.3.9-2,1.3l44.6,18.9,64.2,158.9h0ZM1874.4,975.2c-1.5,1.9-2.3,4.2-2.3,6.8,0,6.1,4.9,11,11,11s9.8-3.8,10.8-8.8c1.6,1.3,4,2.9,6.6,3.5,1.8.5,4.5-.9,6.7-2.3v-13.9c-1.6-.6-2.9-1.7-3.7-3.2h-1.6c0,.1-.1.3-.2.4-.2,0-.3,0-.5,0-2,0-3.8,1.3-4.3,3.2-.3,0-.6,0-.9,0-2.6,0-4.8-1.5-6-3.6-.5-.9-.8-2-.8-3.2s.3-2.2.8-3.2c1.1-2.2,3.4-3.6,6-3.6s.6,0,.9,0c.6,1.8,2.3,3.2,4.3,3.2s.3,0,.5,0c0,.1.2.3.2.4h1.6c.8-1.4,2-2.6,3.6-3.2v-4.1c-.2,0-.3-.1-.5-.2,0-.2,0-.5,0-.7,0-2.3-1.7-4.2-3.9-4.5,0-.3,0-.6,0-.9,0-3.7,3-6.8,6.8-6.8s6.8,3,6.8,6.8,0,.6,0,.9c-2.2.3-3.8,2.2-3.8,4.5s0,.5,0,.7c-.2,0-.3.2-.5.2v4.1c1.5.6,2.8,1.7,3.6,3.2h2.1c0-.1.1-.2.2-.4.1,0,.3,0,.4,0,2,0,3.7-1.3,4.3-3.2.3,0,.7,0,1.1,0,2.6,0,4.8,1.5,6,3.6.5.9.8,2,.8,3.2s-.3,2.2-.8,3.2c-1.1,2.2-3.4,3.6-6,3.6s-.7,0-1.1,0c-.6-1.8-2.3-3.2-4.3-3.2s-.3,0-.4,0c0-.1-.2-.2-.2-.4h-2.1c-.8,1.5-2,2.6-3.6,3.2v13.7c2.3,1.4,5.1,2.9,7,2.4,2.7-.6,5.1-2.3,6.7-3.6,1,5.1,5.4,9,10.8,9s11-4.9,11-11-.9-5-2.4-6.9l19.7-11c-11.2,22.7-15.8,32.2-17.7,36.2.7.1,1.2.2,1.2.2.9,0,1.7.2,2.5.5.8.3,1.4.8,2,1.3.6.5,1.1,1.2,1.4,1.9s.5,1.5.5,2.3-.2,1.6-.5,2.3c-.3.7-.8,1.4-1.4,1.9-.6.5-1.3,1-2,1.3-.8.3-1.6.5-2.5.5,0,0-3.8.2-12.5-1.3v-9.1c-2.1-.3-4.4-.6-6.7-.9v9.1c-5.3-.6-11.2-.9-16.2-1v-9.2c-1.1,0-2.1,0-3.1.1-1.1,0-2.3,0-3.6-.1v9.2c-5.5,0-10.2.5-15.8,1.4v-9.4c-2.3.3-4.6.6-6.7.9v9.5c-7,.8-12.8.8-12.8.8-.9,0-1.7-.2-2.5-.5-.8-.3-1.4-.8-2-1.3-.6-.5-1.1-1.2-1.4-1.9-.3-.7-.5-1.5-.5-2.3s.2-1.6.5-2.3.8-1.4,1.4-1.9,1.3-1,2-1.3c.8-.3,1.6-.5,2.5-.5,0,0,.6,0,1.6-.2-2-4-6.6-13.5-17.7-36.1l19.8,11.1h0ZM1842,1045.9l13.5,11.8c3.4,2.2,3,8.3,1.7,10.5-2.4,4.2-10.8,8.8-13.5,6.2l-8.9-9.3c1.3-2.2,2.5-4.4,3.5-6.8,1.8-4.1,3-8.2,3.7-12.4h0ZM1820.4,1027l15.3,13.4c-.6,5.4-1.8,10.8-4.3,16-.6,1.2-1.2,2.3-1.8,3.4l-16.1-16.8c.7-1.4,1.9-4.4,3.6-8.2,1.7-3.8,1.7-3.9,3.2-7.9h0ZM1797.6,1007l17.4,15.2c-1.8,5.3-4.2,10.5-6.4,15.5l-15.8-16.5c1.9-4.6,3.5-9.3,4.8-14.2h0ZM1778.5,990.3l13.2,11.5c-1.2,4.7-2.6,9.3-4.3,13.8l-12.6-13.2c1.3-4,2.6-8.1,3.7-12.2h0ZM1760.8,974.8c3.3,2,11.6,10.1,11.6,10.1-.7,2.4-1.5,4.8-2.2,7.1-.4,1.5-.8,2.9-1.2,4.4,0,0-11.8-10.8-14.6-15.2-1.5-2.3-3.9-10.3-3.9-10.3,0,0,7.9,2.4,10.3,3.8ZM1611.8,1227.1c4.4-3.9,11.9-6,15.6-9.4,2.3-2.1.6-5.7,3.3-7.5,14.8-10.5,22.8-3.2,39.6-4.2,15.1-.3,26.2-3.5,35.2-.2,11.4,4.2,20.1,16,34.1,26.6,25.2,16.6,29.6-3.3,45.8-17.3,6-4.5,13.3-7,20-10.3,13.3-5.9,22.1-19,34.8-25.4,11.6-6.3,42.9-18.4,44.8-18.8,10.3-2.2,27.4-17.4,27.4-26.3s-3.5-15.2-6.2-15.1c-3.2.1-2.1,10.5-7.9,20.5-4.5,7.8-13,13.8-15.9,13.5-10.5-1.2-27.1-8.5-34.6-6-9.6,2.9-22.1,18.1-29.9,25-7.4,7-8.2-9.7-11.6-10.6-5.9-1.6-6-6.7-4.6-13.8.6,0,1.2-.1,1.7-.2,4.5-.6,11.9-3.7,11.6-9-1.6-3.1-9.3,4.1-12.3,5,.4-1.8.9-3.8,1.4-5.8v-.2c1.7-6.5,10.7-10.1,13.9-16.1,3.7-6.9,1.8-16.1,7.7-21.2,6.2-5.7,18.4-4.1,23.8-10.6,1.5-1.7,2.7-3.4,3.7-5.2l-2.5-2.6c3.6-1.6,6.5-3.9,7.8-5,6-5.3,9.5-13.9,5.2-20.1-1.6-2.3-6.5-5.5-8.6-10.2,2.2-6.2,7.1-11.9,12.6-14.7,6.1-3.7,9.6-3.5,15.8-.9,7.4.5,8.2-.4,14.4,4.3,5.2,2.8,12.1-4.4,17.3-2,3.4,3.9,1.6,11.4,5.9,14.9,3.8,2.5,9.5,1.1,13.2,3.8,4,2.3,3,8.9,6.7,11.1,1.5.3,4.9,2.1,8.6-.7,3.9-3.3,5.1-16,6.2-8.5,1.4,5.6,1.4,18.6-2.7,19.6,5.6-.9,36.3,6.1,41.3,7.3.5,0,.8.1.7.2,0,0-.3,0-.7-.2-3.9-.4-22.7-.4-33.2,11.7,4.4,5.6,21.6,4.3,27.9,8.6,9.3,1.1,18.8,20.8,17.4,20.9-5.7.5-28.9-7.9-24.2,4.4,1.7,4.7,5.8,16.1,12.1,21.3,5.8,4.7,14,3.3,14,3.3,0,0-3.2,7.8-9.5,11.3-4.1,2.2-12.2.2-12.8,1.3-1.3,2.5,11.4,2.6,17.4,8.3,5.1,4.9,5.5,16.2,3.5,17.2-3.9,1.9,6.2,9.9,6.2,9.9,0,0-6.7,2.2-11.9-.3-5-2.4-8.4-9.6-11.1-9.6-1.2,0-.2,8.2-.2,8.8,0,.8,4.2,2.5,7.5,6.7,3.5,4.5,1.2,13,1.2,13,0,0-3.7-3.7-8.1-5.4-4.4-1.8.2,14.6-.2,17.8-1,7.9-8.1,13.4-8.1,13.4,0,0-1.7-16.1-9.1-15.1-5.4,2.4-.7,3.1-1.9,10.2.1,1.3-4.5,3.2-4,5.6.5,2.4-1.2,6.6-.7,8.1,1,2.9-.6,12.8-6.6,21-6.4,8.7-17.4,13.4-17.4,13.4,0,0,3.1-17.3-6.8-21.4-1.7-.7-1.1,11.1-1.9,21.8-.8,10.6-5.4,15.5-5.4,15.5,0,0-.4-5.2-5-10.9-2.4-3-7.2-4.6-10.4-6.3-4.8-2.5-6.5-9.2-6.7-8.5-3,9.8,3.7,19.3,7.7,29.2,6.4,12.8,8.3,27.9,17.8,38.7,7.7,8.1,22.2,10.1,33,14.6,16.2,5.6,28.2,16.4,40.3,27.7,8.9,8,21,15.4,33.4,12.8,10.8-2.1,9-12.4,8-23.1-.9-11.7-12.7-19.9-18.7-28.5-1.5-3.7,13.6.2,13.2-6,.2-3.8-8-9.8-14.7-10.4-9.2-1.7-19,4-27.7,4.3-7.1.3-14.6-3.9-21.9-6-6.8-2-14.6-1.2-21.2-3.8-17.7-7.9,5.7-26.4,15.7-29.5,5.6-2.1,8-6.2,6.8-11.9-4-20.2.7-32.6,16.2-46.6,3-3.1,6-6.2,8.5-9.2,4.4-4.2,7.2-11.2,10.9-10,5.8,6,10.7,17.1,21.1,18.4,14.7,2.3,26.6-10.6,40.4-12.7,16.6.6,17.4,15.1,44.2,13.4,11.2.5-6.3,13-12.8,16.2-4.8,2.4-10,4-15.4,4.6-12.3,1.4-24.7-1.3-37.1-.6-6.9.2-18.8,3-11.1,7.2,3.5,1.6,9.9,2.8,14,4.3,12.1,3.3,11.6,12.6.7,17.7-3.8,1.9-6.9-1.1-9.3-3.6-5.4-5.2-10.6,8.8-15.2,6-8.2-11.4-12.4-28.2-24-37-13.3-7-18.5,12.2-16.3,24.3.8,5.3,3,10.4,6.2,14.7,8.4,11.2,21.7,14.1,33.4,21.4,6.5,3.8,11.7,9.4,17.3,14.4,8,6.6,12.2,10.4,17.9,17.1,3.8,3.5,9.4,7.6,10,12.6.9,6-2.3,10.3-1,16.8.2,8.3,18.4,33.3,6.5,37.5-6.3,0-13.4-2.9-19.7,0-6.2,2.9-12.8,9.9-11.2,15.4,4.2,5.5,15,4.8,18.8,10.6,2.8,8.6-12.4,12.2-18.9,9.6-6.5-1.6-13-6-18.3-10.6-1.1-1-2-2.1-2.8-3.2.4.8.8,1.8,1.2,2.8,6.8,14.2,8.1,21.9-8.6,8.7-4.9-3.9-12-12.8-14.1-17.3,4,11.1,6.9,32.8,5.7,46.3-.4,12.9-2.8,26.6,5,37.7,7.3,11,23.7,5.8,26.5,18.6,1.7,8.8.3,25.8,6.6,33,7.4,5.6,4.6,1.2,13.7,3.9,1.1.2,7.4-7,8.7-6,0,0-.2,5.6-1.2,7.6-.9,1.8-6.1,7.3-6.1,7.3,0,0,3.4.7,5.5-1,2.7-2,7.6-11,7.6-11,.6.7-.6,6.8-3,14.7-.4,1.5,5-2.1,5-2.1,0,0,6.4,9.6,3.5,15.1-5.7,10.5-8.9,11.4-11.2,16.3-7.8,16.9-17.2,46.9-32.8,46-1.4,1.5-8.4,4.1-14.8,5.4l2.4-17.2-10.1,15.5c-4.3.3-6-5.3-5.8-7.5.4-1.3,2.1-8.3,8.9-23.1,4-8.8,27.3-22.8,29.8-31.2,5-17-12.4-16.4-12.6-17.4-.7-5.1-8.1-10-10.1-14.6-5.4-12.6-29.1-28.2-41.1-35.1-13.1-8.7-6.1-12.3-21.4-13.6-14.3-.4-25.5-7.2-32.7-19.9-7.8-11.9-14.6-25.1-22.4-36.9-7.7-11.9-18.1-9.6-31.3-8.3-8.5,1.1-19.2-1-26.4-4-2.3-.4-9.2-4.4-7.9,0,6.8,13.5,13.8,27.5,17.9,42.3,7.4,19.9,7.9,27.3-13.9,24-14.8-2.8-28.9-7.6-35,.8-.9,1.2,8.6,4.2,8.6,4.2,0,0-17.2,2.5-21.6,3.2-5.6.9,13.5,5.5,13.2,6.4-8.6,4.3-19.1,1-23.9-4.6-4.2-4-6.1-8.3-9.6-9.2-10.6,3.3-11.4,32.7-35.2,39.2-6.7,2.7-12.1,4.3-16.8,3-1.8-.5-8.1-4.5-6.5-7.8l12.8-11.6-13.4,4.9c-.6-3.1,3.1-5,5.1-10,3.5-7.1,9.8-5,18.4-12.6,2.6-2.2-3.6-7.2-.6-11.4,3.9-5.6,17-10.4,19.8-11.5,15-7.7,47.5,1.7,53.7-16.8,4.2-19.6-40.5-26.1-23.6-45.1,20.1-20.7,30.6-21.6,12-45.3-1.5-2.2-5.7-4.2-7.1-6.3-8.5-12.9-10.4-26.9-19.1-41-4.2-6.3-8.4-9.1-14.5-11.3-14.5,1.3-22.9-2.8-31.1,4.6-5.9,5.4-14.1,5.8-16.6,13.8-1.3,4.5-3.7,12.5,2.3,14.1l17.7-1.5s-.9,3.1-2.8,4.9c-1.8,1.8-4.6,2.2-5.7,2.8-2,1.2-6.5,7.2-6.5,7.2l17.1-4.2c-1,3.4-7.6,9.4-8.9,11.2-1.7,2.3-7.3-.4-9.9,3.7-2.7,4.3-3.7,9.4-4.8,11.9-4.4,12.1,10.6,9.6,12.2,24.7.2,12.4-5.3,20.7-12.2,23.4l-6.8-9.2-1.9,9.5c-5.7-1.7-11.2-7.3-14.4-17.6-4.4-14.8-4.5-29.9-2.3-45.1,1.3-9.9,3.3-19.9,3.1-29.8,0-9.3-2.2-20-1.1-27.1,2.6-13,16.9-17.3,26.8-23.9,7.6-4.6,16-9.5,23.6-13.2.7-.5,1.8-1,3.1-1.6,3.7.6,8.2,1,13.1,1,2.4,0,21.6,0,22.9-5.9.7-2.9-3.7-4.4-4.4-10-.7-5.4,2.6-9.9,3.3-10.9,5-7,11.3-4.7,16.3-11.4,3.6-4.8,4.2-11.2,3-11.7-1.2-.6-3.3,5.3-9.9,10.9-8.5,7.1-14.4,5.3-18,11.7-2.1,3.8-.5,5.2-3.1,9.8-2.9,5.1-7.2,8-9.7,8.9-1.1.4-3.7.7-4.7,0-1.8-1.3-7.7-4.8-11.2-6.2-9.2-3.6-19.7-8-27-14.8-12.8-10.6-18.3-31.9-35-37.2-4.2-1.3-9.8-.9-11.9,3.5-.8,2.7-.9,24.3-.9,24.3,0,0-4.5-4.7-5.9-6.5-4-5.2-5.6-12.3-5.6-12.3,0,0-4.3.4-6,4.4-1.7,4-.8,11.4-1.6,10.3l-6.2-5.9c-1-4.9,2-13-1.9-12.8-6.3.7-13.8,21.2-19.1,24.9-7.2,6.1-28.2,4.1-35.8.5-.4-.2-.8-.5-1.1-.7l13.2-10.9-15.5,8.7c-4.7-7.7,18.5-17.4,25.5-23.1h0Z"/>
        <path d="M1692.6,1988.1c21.4-12.1,6.6-10.7-16.5-1.1-36.2,15-81-10.1-81-10.1,7.1-28,40-85.7,101.7-65.8-36.7-26-18.6-76.8,7.7-103.5-45.7-2-92.5-6.8-136.2-18.6l25.6,61.6-73.8-22.8-35.9,68.4-25.6-61.6c-22.5,39.2-52.1,75.8-82.9,109.6,37.5.2,86.3,23.2,78.8,67.5,29.4-57.6,93-40.5,118.3-25.7,0,0-13.8,49.5-50,64.6-23.1,9.6-34.5,19.1-10.9,12.5,18.9-5.3,103.9,34.2,119.5,61.6,4.9-2,9.9-4,14.8-6.1,1.9-.8,3.8-1.6,5.7-2.4-8.4-30.4,23.5-118.4,40.6-128.1h0Z"/>
        <path d="M1749.3,1983.8c-4.5-5.1-18.5.3-25.9,5.7-26.6,18.5-47.7,58.8-51.4,89.5-.8,8.6-.6,14.8,8.1,8.7,7.4-5.4,14.6-12.7,21.2-19.5,14.4-15.3,29.3-35,39.7-53.9,3.7-7.4,14.3-23.7,8.4-30.4h0c0,0,0,0,0,0Z"/>
        <path d="M1490.8,2033.2c21.6-6.2,57.7-7.8,57.9-30.4,0-6.7-12.2-5.9-18.8-4.7-7.8-1.6-72.1,40.8-39.1,35.1h0Z"/>
        <path d="M1755.6,2063.3c7.4-4.4,14.8-9,22.1-13.6,1.9-29.5,23.8-79.4,52.9-115.3-18.7,4.3-38.8,6.9-57.7,7.6,9.2,45.6-5.7,87.8-17.3,121.4Z"/>
        <path d="M1761.2,1905.1c2.1-.6,3.8-2,5-4,0,0,0,0,0,0,3.2-4.4,3.9-11,3.5-17.8h0c-.3-9.3-2.6-19.4-6.2-26.7,0,0,0,0,0,0-2.4-5.2-6.5-10.9-12.4-9.5-4.9,3.2-1.9,11-1.6,15.9,1.5,10.4,3.1,20.8,4.6,31.1.8,5.8-.2,14.1,7,11Z"/>
        <path d="M1633.2,1955.2c-5.5,3.9-14.7,12-9.9,16.7,16.2,15.7,42.7-8.8,62.4-19.7,27.3-19.4-48.1-3.7-52.4,3Z"/>
        <path d="M1412.6,2023.3c2.6,1,5.1-.3,7-2.4,3-2.8,4.6-8,4.8-14.1.8-11.2-3.9-23.3-10.2-31.6-2-2.8-4.5-5.1-7.3-7,0,0,0,0-.1,0-5.4-3.9-12-6.2-19.8-5.7-3.2.2-6.3,1-9.2,2.2,0,0-.2,0-.3.1-4.7,1.9-8.8,5.2-11.6,10-.1.2-.2.4-.3.6-.1.2-.2.4-.3.6-.7,1.3-1.3,2.7-1.7,4.2,16.2,9.6,59.8,17.5,49.1,43.2h0Z"/>
        <path d="M1568.4,2096.4c-22.9-10-58.4-17.5-81.5-8.5h-.2c-7,2.6-18,9.4-10.6,16.7,5.8,4.9,12.9,6.7,26.4,10.6,8.1,2.1,15.7,3.8,24.9,5.2,9.8,1.6,20.6,2.7,30.5,3.1,10.7.7,44.5.6,41.8-5.2-3-7.5-20.2-17-31.4-22h0Z"/>
        <path d="M1722.2,1822c-.5,0-.9.2-1.4.3-3.6,1-7,2.8-9.9,5.2-.6.4-1.1.9-1.6,1.4-.2.2-.3.3-.5.5-.2.2-.3.3-.5.5-.4.4-.8.9-1.2,1.3-.4.4-.8.9-1.2,1.4-.3.4-.6.8-.9,1.2-1.7,2.4-3.2,5.1-4.2,7.9,0,.2-.1.3-.2.5,0,.2-.2.5-.2.7-.2.5-.3.9-.4,1.4,0,.3,0,.3,0,0-.9,3.3-1.3,6.8-1,10.2,0,.7.1,1.5.2,2.2,0,.7.2,1.4.3,2.1.1.7.3,1.4.4,2.2.1.5.2,1,.4,1.4.4,1.4.8,2.9,1.3,4.3.2.5.3,1,.5,1.4.4,1,.8,1.9,1.2,2.9.2.5.4.9.7,1.4.5.9,1,1.9,1.5,2.8,2.2,3.9,4.9,7.4,8.1,10.3.4.3.8.7,1.1,1,1,.8,2,1.6,3,2.2.4.3.8.5,1.3.8,2.6,1.5,5.4,2.6,8.3,3.2,2.9.2,5.8-.7,7-3.3-25.8-10.4-.7-47,4-65.2-5.5-2.8-11.1-3.4-16.2-2.3h0Z"/>
        <path d="M873.9,1986.9h-.2c-7.9-4-21.9-6.1-19.2,7.1,2.5,10.2,7.8,18.4,13.3,28.1,14,23.5,36.2,50.9,57.4,67.2,6.5,4.6,8.6,2.9,8.6-3-.2-11.6-3.5-24-9.4-38.3-9.2-22.1-28.9-51.8-50.5-61.2h0Z"/>
        <path d="M1422.5,2087.5c-13.9,12.9-29.8,25.4-46.1,35.6,46.1,4.7,97,24.4,119.2,43.9,8.5-1.9,16.9-3.9,25.3-6.1-31.9-15.4-72.4-34.6-98.4-73.4Z"/>
        <path d="M1425.4,1023.1c-.6-1.2-1.1-2.4-1.7-3.4.6,1.2,1.1,2.3,1.7,3.4Z"/>
        <path d="M1196.7,543.5c-7.3,3-.6,8.1,2.9,12.8,6.3,8.4,12.5,16.8,18.8,25.2,3.2,4.8,11.8,16.4,15.5,6.1,3.5-13.4-20.5-50.6-37.2-44.1Z"/>
        <path d="M1734.2,706.7c-1.1-2.5-3.7-3.4-6.4-3.3h0c-4.2-.2-8.9,2.3-13.4,6.4h0c-8.5,7.4-13.8,19.4-15.2,29.7-.6,3.6-.4,7.2.4,10.7,1.1,6.4,4.2,12.5,9.9,17.5,2.4,2.1,5.2,3.8,8.2,5,0,0,.2,0,.3.1,4.9,2,10.4,2.5,15.9.9.1,0,.3,0,.4-.1,1.5-.4,2.9-1,4.3-1.8-4.7-18.2-29.9-54.6-4.2-65.2h0Z"/>
        <path d="M1727.4,609.9h.2c7.9,4,21.9,6.1,19.2-7.1-2.5-10.2-7.8-18.4-13.3-28.1-14-23.5-36.2-50.9-57.4-67.2-6.5-4.6-8.6-3-8.6,3,.2,11.6,3.5,24,9.4,38.3,9.2,22.1,28.9,51.8,50.5,61.2h0Z"/>
        <path d="M1756.1,748.6c11.9-7,21.3-50.3,4.9-57.5-7.3-3-6.2,5.3-7,11.1-1.5,10.4-3,20.8-4.5,31.1-1.1,5.6-3.3,19.9,6.7,15.3Z"/>
        <path d="M1188.8,573.5c-2.6-1-5.1.3-7,2.4-2.9,2.8-4.5,7.7-4.7,13.5,0,0,0,.2,0,.3-.8,11.2,3.8,23.5,10.2,31.9,2.1,2.8,4.7,5.2,7.6,7.1,0,0,0,0,0,0,5.3,3.8,11.9,6,19.6,5.6,3.2-.2,6.3-1,9.2-2.2.2,0,.3-.1.4-.2,4.9-2,9.1-5.5,11.8-10.6,0-.2.2-.3.3-.5.7-1.3,1.3-2.7,1.7-4.2-16.2-9.6-59.8-17.5-49.1-43.2h0Z"/>
        <path d="M1772.5,654.3c19,.6,39.1,3.1,57.8,7.4-27.5-33.9-48.8-80.1-52.7-110-6.8-4.3-13.7-8.6-20.6-12.7,11.2,32.4,24,72.2,15.5,115.4h0Z"/>
        <path d="M1370.1,591.9c5.8,1.2,9.1-6.4,12.4-10.1,6.2-8.4,12.5-16.9,18.8-25.3,3.5-4.7,10.1-9.8,2.8-12.8-1.9-1-4-1.2-6.3-.8,0,0-.2,0-.2,0-5.3.9-10.6,5.1-15.1,10.3,0,0,0,0-.1.1-6.3,6.7-11.8,15.4-14.2,23v.2c-2,5.4-3.1,12.1,2.1,15.2h0Z"/>
        <path d="M1401.4,631.5c.8-.4,1.7-.8,2.5-1.2.5-.3,1.1-.6,1.6-.9.5-.3,1-.7,1.5-1,.2-.2.5-.4.8-.5,1-.8,1.9-1.6,2.8-2.4,1.1-1.1,2.2-2.3,3.1-3.6,9.1-12,14.7-32.1,5.6-45.5-1.9-2.2-4.6-3.6-7.3-2.6,10.8,25.6-32.8,33.7-48.9,43.3,5.4,16.8,24,20.9,38.4,14.5h0Z"/>
        <path d="M1520,768.9l73.7-23-25.5,61.7c43.6-11.9,90.4-16.8,136.1-18.9-26.4-26.7-44.6-77.5-8-103.5-61.5,19.9-94.4-37.1-101.8-65.5,0,0,44.8-25.2,81-10.3,23.1,9.5,37.9,10.9,16.5-1.1-16.4-9.2-46.6-90.3-41.8-123.8-1.4-.6-2.7-1.2-4.1-1.7-6-2.5-12-5-18-7.4-20.3,27.2-98.8,63.3-117,58.3-23.7-6.5-12.2,2.9,10.9,12.5,36.2,15,50.2,64.4,50.2,64.4-24.8,14.8-88.9,32.3-118.4-25.3,7.6,44.3-41.2,67.4-78.7,67.7,30.9,33.7,60.6,70.2,83.2,109.4l25.4-61.7,36.1,68.3h0Z"/>
        <path d="M1529.9,598.9c6.6,1.2,18.9,1.9,18.8-4.8-.3-22.6-36.4-24-58-30.2-33-5.6,31.4,36.7,39.2,35Z"/>
        <path d="M1514.1,438.7c-7.8-1.9-15.7-3.8-23.6-5.5-23.9,18.4-71.6,36.2-115,40.8,16.3,10.1,32.3,22.6,46.2,35.5,24.2-36.4,61.4-55.7,92.4-70.8Z"/>
        <path d="M1483.3,484.8c-22.1,7.4-15.3,18.7,3.3,24.2,11.7,3.3,24.2,3.3,36.5,1.5,23.8-3.6,48.3-11.9,66.8-26.9,5.1-4.4,6.9-7.1,4.7-8.8-2.8-2.2-11.5-3.1-26.1-3.4-26.1-.6-62.2,4.9-85.1,13.3h-.2Z"/>
        <path d="M845.3,1848.3c-12,7-21.3,50.3-4.9,57.5,7.3,3,6.2-5.3,7-11.1,1.5-10.4,3-20.8,4.5-31.2,1.1-5.6,3.3-19.9-6.7-15.3h0Z"/>
        <path d="M852,613c4.5,5.1,18.5-.3,25.9-5.7,26.6-18.5,47.7-58.8,51.4-89.5.8-8.6.6-14.8-8-8.7-7.4,5.4-14.6,12.7-21.2,19.5-14.4,15.3-29.3,35-39.7,53.9-3.7,7.4-14.3,23.7-8.4,30.4h0c0,0,0,0,0,0Z"/>
        <path d="M968.2,641.7c5.5-3.9,14.7-12,9.9-16.7-16.2-15.7-42.8,8.8-62.4,19.7-27.3,19.4,48.1,3.7,52.5-3h0Z"/>
        <path d="M840.2,691.7c-2,.6-3.7,1.9-4.9,3.8,0,0,0,0-.1.2,0,0,0,0,0,0-3.2,4.4-3.9,11-3.5,17.8h0c.3,9.3,2.6,19.5,6.2,26.7,0,0,0,0,0,0,2.4,5.2,6.5,10.9,12.4,9.5,4.9-3.2,1.9-11,1.6-15.9-1.5-10.4-3.1-20.8-4.6-31.1-.8-5.8.2-14.1-7-11h0Z"/>
        <path d="M1178.9,509.3c13.9-13,29.8-25.4,46.1-35.6-43.3-4.5-90.8-22-114.8-40.4-7.8,1.7-15.7,3.5-23.5,5.5,30.8,14.9,67.8,34.1,92.2,70.5Z"/>
        <path d="M843.8,539.3c-6.9,4.2-13.8,8.4-20.6,12.8-3.8,29.9-24.9,76.4-52.5,110.5,18.7-4.3,38.8-6.9,57.7-7.5-8.6-43,4.1-83.1,15.3-115.7Z"/>
        <path d="M828.8,1942.5c-19-.6-39-3.1-57.7-7.4,29.1,35.7,51.1,85.3,53.2,114.9,7.3,4.6,14.6,9.2,22,13.6-11.6-33.4-26.5-75.4-17.5-121.1h0Z"/>
        <path d="M874.3,775.3h0c.3,0,.7,0,1,0,.3,0,.5,0,.8,0,.2,0,.5,0,.8,0,.4,0,.7,0,1.1-.2.4,0,.8-.1,1.2-.2.5,0,.9-.2,1.4-.3.2,0,.5-.1.8-.2.3,0,.6-.2,1-.3s.6-.2.9-.3c.2,0,.4-.1.5-.2.5-.2.9-.4,1.4-.6.2,0,.4-.2.6-.3.2,0,.4-.2.6-.3.4-.2.8-.5,1.2-.7.2-.2.5-.3.7-.5.2-.2.5-.3.7-.5.5-.3,1-.7,1.4-1.1.3-.2.5-.5.8-.7.3-.2.5-.5.8-.7.8-.7,1.5-1.4,2.2-2.2.2-.2.4-.4.6-.7.4-.5.8-1,1.1-1.4.1-.2.3-.4.4-.6.4-.5.7-1,1-1.5.1-.2.2-.3.3-.5.2-.2.3-.5.4-.7.3-.5.5-1,.8-1.5.1-.2.3-.5.4-.7.1-.2.2-.5.3-.7.2-.5.4-.9.6-1.3.2-.6.5-1.2.7-1.8.2-.5.3-1.1.5-1.7,0,0,0-.2,0-.3.2-.6.3-1.2.4-1.8,0,0,0,0,0,0,0-.3.1-.6.2-.9,0-.3.1-.6.2-1,0-.2,0-.5,0-.7,0-.3,0-.5,0-.8,0-.3,0-.5,0-.8,0,0,0-.1,0-.2v-.7s0,0,0,0c0-.2,0-.5,0-.7h0c0-.3,0-.6,0-.9,0-.3,0-.6,0-1,0-.1,0-.3,0-.4,0-.3,0-.7,0-1,0-.4,0-.7-.2-1.1-2.1-14.9-12.3-33.1-28.2-36.1-2.9-.2-5.8.7-7,3.3,25.8,10.4.7,47-4,65.2,3.8,2,7.6,2.8,11.3,2.8h0Z"/>
        <path d="M1033,500.5c22.9,10,58.4,17.5,81.5,8.5h.2c7-2.6,18-9.4,10.6-16.7-5.8-4.9-12.9-6.7-26.4-10.6-8.1-2.1-15.7-3.8-24.9-5.2-9.8-1.5-20.6-2.7-30.5-3.1-10.7-.7-44.5-.6-41.8,5.2,3,7.5,20.2,17,31.4,22h0Z"/>
        <path d="M908.8,608.7c-21.4,12.1-6.6,10.7,16.5,1.1,36.2-15,81,10.1,81,10.1-7.1,28-40,85.7-101.7,65.8,36.7,26,18.6,76.8-7.7,103.5,45.7,2,92.5,6.8,136.2,18.6l-25.6-61.6,73.8,22.8,35.9-68.4,25.6,61.6c22.4-39.3,52.1-75.8,82.9-109.6-37.5-.2-86.3-23.2-78.8-67.5-29.4,57.6-93,40.5-118.3,25.7,0,0,13.8-49.5,50-64.6,23.1-9.6,34.6-19.1,10.9-12.5-18.1,5-96.8-30.9-117.1-58-5.8,2.3-11.5,4.6-17.2,7.1-1.6.7-3.2,1.4-4.8,2.1,4.9,33.5-25.1,114.7-41.5,124h0Z"/>
        <path d="M1110.5,563.7c-21.6,6.2-57.6,7.8-57.9,30.4,0,6.7,12.2,5.9,18.8,4.7,7.8,1.6,72.1-40.8,39.1-35.1h0Z"/>
        <path d="M1103.9,1300.7l57.6,142.6,139.1,59.1,139.1-59.1,57.6-142.6-57.6-142.6-139.1-59.1-139.1,59.1-57.6,142.6ZM1300.7,1133.5l118.2,49,49,118.2-49,118.2-118.2,49-118.2-49-49-118.2,49-118.2,118.2-49Z"/>
        <path d="M1194.6,1406.8l106.1,43.9,106.1-43.9,43.9-106.1-43.9-106.1-106.1-43.9-106.1,43.9-43.9,106.1,43.9,106.1ZM1226,1226l74.7-30.9,74.7,30.9,30.9,74.7-30.9,74.7-74.7,30.9-74.7-30.9-30.9-74.7,30.9-74.7Z"/>
        <path d="M1300.7,1395.5l67.1-27.8,27.8-67.1-27.8-67.1-67.1-27.8-67.1,27.8-27.8,67.1,27.8,67.1,67.1,27.8ZM1206.1,1300.7s18-22.1,39.9-22.7c-15.2-15.9-12.2-44.2-12.2-44.2,0,0,28.3-2.9,44.2,12.2.6-22,22.7-39.9,22.7-39.9,0,0,22.1,17.9,22.7,39.9,15.9-15.1,44.2-12.2,44.2-12.2,0,0,2.9,28.3-12.2,44.2,22,.6,39.9,22.7,39.9,22.7,0,0-18,22.1-39.9,22.7,15.2,15.9,12.2,44.2,12.2,44.2,0,0-28.3,2.9-44.2-12.2-.6,21.9-22.7,39.9-22.7,39.9,0,0-22.1-17.9-22.7-39.9-15.9,15.1-44.2,12.2-44.2,12.2,0,0-2.9-28.3,12.2-44.2-22-.6-39.9-22.7-39.9-22.7Z"/>
        <path d="M1826.2,1229.3c5.1-.3,10.2.3,15.1,1.7,1,.3,2.2.7,2.7,1.7.5.9.3,2,0,2.9-1,3.7-3.4,7-6.6,9.1,6.4.5,12.8,1,19.3,1.4-1.5,2.9-6.2,5.1-4.7,8.1.4.8,1.2,1.3,1.9,1.8,5.1,2.8,11.2,2.7,17,3,9.5.5,18.9,2.6,27.8,6.2-7.9-5.9-15.8-11.8-23.7-17.7-.9-.7-1.9-1.6-1.6-2.7.3-1.3,2-1.5,3.3-1.4,5.5.4,8.2-2.6,13.7-2.8,4.1-.2,11.1,2.9,14.5.7,10.6-5.6,23.6-21.1,30.9-30.8,18.9-27.1,23.5-60.8,19.5-92.9-3.2-11.1-14.7-20.3-25.3-24.6,4.2,5.8,12.4,15.7,13.4,22.8.2,1.9.2,3.9-.7,5.6-.8,1.4-2.1,2.4-3.4,3.3l-13,9.5c5.9-.5,11.9-1,17.8-1.5,2.2,10.6-3.5,22.3-13.1,27.2,1.5,0,3.1,0,4.6,0,2.2,6.2-3.5,12.5-9.4,15.2-5.9,2.7-12.8,3.8-17.6,8.4,9.8-1.2,19.5-3.6,28.8-7,2.7,6.1.2,13.6-4.9,17.8s-12.1,5.5-18.6,4.7c1.2,1.3,2.3,2.8,2.8,4.5.4,1.7,0,3.8-1.6,4.6-1.3.7-2.9.3-4.3-.2-4.8-1.4-9.5-2.8-14.2-4.2,3.9,5.6,4.9,13,2.8,19.5-3.1-4.6-6.3-9.2-10.5-12.8-7.2-6.2-17.4-8.7-26.7-6.5,8.4,1.5,15.8,7.9,18.5,16.1.3,1.1.6,2.2.3,3.3-.8,3.3-5.4,3.3-8.7,2.7-16.1-2.8-32.7-1.9-48.4,2.6,0,.9,1.3,1.1,2.1,1h0Z"/>
        <path d="M1926.4,1090.2c1.4.6-4.9-3-5.1-7.4-.2-7.8-5.3-13.5-10-19.7-3.2-4.2-3.8-10.6-4.2-15.9-2.7,7.4-4.4,15.8-8.6,22.5s-9.9,12.6-17.1,15.6c7.8,2.7,18.1-9.2,24.4-14.5,0,1.5,5.4,4.7,6.8,9.3.9,3.1-2.1,7.8-2,9.3.2,4.7-5.1,10.9-5.4,11.4,6.6,1.4,15-13.3,21.3-10.7h0Z"/>
        <path d="M1896.5,1050.9c.3-2,.4-4-.3-5.9s-11.9-5.3-13.9-5.6c1.2,3.5,8.7,6.3,9.1,10.5.4,3.7-2.3,8.7-4.6,11.6-3.3,4.2-8.5,7.5-12.6,11.1,4.3-1.6,8.7-3.2,12.5-5.9,5.1-3.7,8.7-9.5,9.8-15.7h0Z"/>
        <path d="M1868.4,1098.1c-3.5,0-10.2,7.6-13.9,10.3-1.1.9-.3-1-.8.3-.3,2.2,3.5,2.3,5.1,2.6,4,.6,7.3,0,11-1.7,1.7-.8,4-1.5,5.2-2.8h0c1.7-2.5-4.2-8.7-6.6-8.7h0Z"/>
        <path d="M1980.3,1477.7c3.4.4,16.7-3.2,18,0,1.3,3.1-1.8,11.7-1.4,15.1-2.1,5-6.3,11-3.2,15.4,5.8-5.9,12.1-30.1,12.9-38.4,2.5-24.7-3.3-34.3-7.5-58.8-4.7,4-1.7,12.1-1.2,18.2.8,9.8,5.6,24,2.9,33.5-2.2,7.5-14.2,11.1-20.5,15h0Z"/>
        <path d="M1901.5,1357.3c-.1.5,0,1,0,1.4.6,2.6,1.9,5,3.7,6.9,1.1,1.2,2.5,2.5,2.2,4.1-.5,2.8-5,2.1-7.2,3.9-1.4,1.1-1.8,3.1-1.5,4.8s1.2,3.3,2,4.8c4,7.4,7.1,15.4,8.9,23.7-.8-7.4-1.5-14.9.3-22.1s6.6-14.1,13.6-16.2c.7-.2,1.4-.3,2,0,.5.2.8.7,1,1.2,1.4,2.6,2.4,5.4,2.9,8.3,2.8-2.3,3.5-6.6,2.4-10.1-1.1-3.5-3.5-6.4-5.9-9.2-2.7-3-5.6-6-8.6-8.8-3.9,3.9-10.3,2.7-14.8,5.8-.5.3-1,.8-1.1,1.4h0Z"/>
        <path d="M2382.3,1147.4h0s-.1,0-.2,0l-2.6.6c-3.7.8-10.2,1.7-15.8.3-6.6-1.6-9.7-1-24.2-9.8-8.8-5.4-21.6-14.2-33.3-21.6-1.7-1.1-3.4-2.1-5-3.2-5.8-3.6-11.1-6.7-15.1-8.5-13.2-6.1-32.6-4.2-45.5-1.9-1.6.3-3.1.6-4.5.9,8.7,41.6,14.6,83.8,17.7,126.6,1.4-.1,3-.2,4.6-.4,13-1.4,32.4-5,43.3-14.5,4.2-3.7,10-9.9,16-16.8,9.1-10.4,19.1-22.4,26-30,11.4-12.5,14.6-12.7,20.5-16.1,5-2.9,11.6-3.8,15.3-4.1h2.8c0-.1.2-.1.2-.1,12.7-.6,24.5,4.5,33.3,13.3-1.5-12.3-3.2-24.6-5.1-36.8-6.1,10.9-15.9,19.1-28.4,22.1h0Z"/>
        <path d="M2387.1,1251.8c14.4-.7,27.6,6,36.6,16.9-.3-12.4-.9-24.8-1.6-37.2-8,11.8-20.6,19.6-35,20.2h0Z"/>
        <path d="M316.8,1843.6c6.1,11,12.3,21.8,18.7,32.6,1.7-14.2,9.3-27,21.9-34.2-12.6,7.2-27.5,7.3-40.6,1.6Z"/>
        <path d="M991.5,2343.4c-4.2,14-15,24.4-28.5,29.2,12.1,3.8,24.2,7.4,36.4,10.8-8.7-11.5-12.1-26.1-8-40.1Z"/>
        <path d="M799.8,2266c-6.7,12.9-19.2,21-33.3,23.3,11,6,22.2,11.8,33.5,17.4-6.3-12.9-6.8-27.8-.2-40.7Z"/>
        <path d="M928.7,2181.1c-14.9-6.3-29.6-13-44.1-20-.6,1.3-1.3,2.7-2,4.2-5.3,12-11.8,30.5-9.1,44.6,1.1,5.5,3.6,13.6,6.5,22.3,4.4,13.1,9.9,27.7,13,37.5,5.1,16.1,3.7,19,3.7,25.8,0,5.8-2.5,11.9-4.1,15.3l-1.3,2.5c0,0,0,.1,0,.1h0c-5.9,11.4-16.3,19-28.4,22.2.2,0,.3.1.5.2,11.4,4.8,22.8,9.4,34.3,13.8-6.5-10.7-8.6-23.4-5-35.7h0s0-.1,0-.2l.8-2.6c1.2-3.6,3.6-9.7,7.6-13.9,4.7-4.9,5.7-7.9,20.5-16,9-4.9,23.1-11.7,35.4-18,1.8-.9,3.5-1.8,5.2-2.7,6-3.2,11.3-6.3,14.9-8.8,11.9-8.4,19.9-26.1,24.4-38.4.6-1.6,1.1-3,1.5-4.4-25.1-8.2-49.9-17.5-74.4-27.9h0Z"/>
        <path d="M729.3,2066.8c-.8,1.1-1.7,2.4-2.7,3.7-7.5,10.7-17.4,27.8-17.4,42.2,0,5.6.9,14,2.2,23.1,1.9,13.7,4.5,29.1,5.6,39.3,2,16.8,0,19.4-1.3,26-1.1,5.7-4.7,11.2-7,14.2l-1.7,2.2c0,0,0,0,0,.1h0c-7.9,10-19.4,15.5-31.8,16.4,10.2,6.9,20.6,13.6,31.1,20.1-1.9-5.2-2.9-10.6-2.9-16s1.5-13.5,4.8-19.8h0s0-.1,0-.2l1.2-2.4c1.8-3.3,5.4-8.9,10.1-12.2,5.5-3.9,7.1-6.7,23.2-11.8,9.8-3.1,24.9-7.1,38.2-11,1.9-.6,3.8-1.1,5.6-1.7,6.5-2,12.3-4,16.3-5.8,13.3-6,24.6-21.9,31.3-33.1.8-1.4,1.6-2.8,2.3-4-37.3-20.7-73.1-43.9-107.3-69.5h0Z"/>
        <path d="M1362,2254.3c-20.3,1.3-40.8,1.9-61.3,1.9s-44.4-.8-66.4-2.3c0,1.4-.2,3-.2,4.6-.5,13.1.3,32.8,8.2,45,3,4.7,8.3,11.3,14.3,18.3,9,10.5,19.5,22,26,30,10.7,13.1,10.5,16.3,13,22.6,2.2,5.4,2.1,12,1.8,15.7l-.3,2.8c0,0,0,.1,0,.1h0c-1.2,12.6-7.9,23.4-17.7,30.9,7.1.1,14.2.2,21.3.2s10.2,0,15.3-.1c-9.8-7.5-16.4-18.4-17.5-31h0s0-.1,0-.2l-.2-2.7c-.2-3.7-.2-10.4,1.9-15.7,2.5-6.3,2.3-9.5,13.1-22.5,6.6-7.9,17.1-19.4,26.2-29.9,1.3-1.5,2.6-3,3.8-4.5,4.4-5.2,8.2-10,10.6-13.7,8-12.3,8.8-31.9,8.4-44.9,0-1.7-.1-3.2-.2-4.6h0Z"/>
        <path d="M1180.4,2248.8c-42.4-5.3-84.3-13.5-125.5-24.4-.4,1.4-.7,2.9-1.1,4.5-2.9,12.8-5.8,32.1-.5,45.5,2.1,5.2,6.1,12.6,10.6,20.7,6.8,12,14.9,25.3,19.8,34.4,8.1,14.9,7.2,18,8.5,24.6,1.1,5.7-.2,12.2-1.2,15.8l-.8,2.7c0,0,0,.1,0,.1h0,0c-3.6,12.3-12.4,21.8-23.6,27.2,12.2,2.6,24.4,5,36.7,7.1-7.4-8.3-11.8-18.7-11.8-29.9s0-2.8.2-4.2h0v-.2l.3-2.7c.5-3.7,1.7-10.2,4.9-15.1,3.7-5.7,4.1-8.9,17.2-19.6,7.9-6.5,20.5-15.8,31.3-24.4,1.6-1.2,3.1-2.5,4.6-3.7,5.3-4.3,10-8.3,13-11.5,10.1-10.5,14.7-29.5,16.7-42.4.3-1.6.5-3.2.7-4.6h0Z"/>
        <path d="M1194.4,2383c-1.4,14.4-9.9,26.6-22.2,33.9,12.4,1.4,24.8,2.6,37.2,3.6-10.5-9.6-16.5-23.2-15.1-37.5Z"/>
        <path d="M2397.8,1057.1c-2.7-12.3-5.7-24.7-8.8-36.9-5.6,13.3-16.5,23.5-30.7,26.9,14.2-3.4,28.5.8,39.5,10Z"/>
        <path d="M231.6,1647.4c3.9,12,8,24,12.4,35.9,4.3-13.7,14.2-25,28-29.7-13.8,4.7-28.5,1.9-40.4-6.2h0Z"/>
        <path d="M349.6,1748.9c10,2.7,24.8,7.5,38,11.4,1.9.6,3.8,1.1,5.7,1.6,6.6,1.8,12.5,3.3,16.9,3.9,14.4,2.1,32.5-5.1,44.2-11,1.5-.7,2.9-1.4,4.1-2.1-14-26-26.8-52.7-38.3-80.1-5.1-12-9.9-24.1-14.5-36.3-1.3.5-2.8,1.1-4.3,1.7-12.1,5-29.5,13.9-37.3,26-3,4.7-6.8,12.3-10.7,20.6-5.8,12.5-12,26.9-16.5,36.1-7.4,15.2-10.5,16.3-15.1,21.2-4,4.2-10,6.9-13.5,8.2l-2.6.9c0,0-.1,0-.1,0h0,0c-12.1,4.2-24.9,2.5-35.9-3.5,5,11.4,10.1,22.8,15.5,34,2.7-12.2,9.9-22.8,21-29.2h0s0,0,0,0c0,0,0,0,.2-.1l2.3-1.3c3.3-1.8,9.3-4.5,15.1-4.8,6.8-.3,9.6-1.8,25.9,2.6h0Z"/>
        <path d="M238.5,1556.1s.1,0,.2,0l2.6-.9c3.6-1.1,10-2.7,15.7-1.8,6.7,1,9.8,0,25,7.4,9.3,4.5,22.9,12.1,35.2,18.4,1.8.9,3.5,1.8,5.3,2.7,6.1,3.1,11.7,5.6,15.8,7.1,13.7,4.8,32.8,1.1,45.4-2.4,1.6-.4,3.1-.9,4.5-1.3-12.7-40.7-22.6-82.2-29.7-124.3-1.4.2-2.9.5-4.5.9-12.8,2.6-31.7,8.1-41.6,18.5-3.9,4.1-9,10.8-14.4,18.2-8.1,11.2-16.8,24.1-23,32.3-10.2,13.5-13.4,14.1-18.9,18-4.7,3.4-11.2,4.9-14.9,5.5l-2.7.4h-.2c-12.7,1.8-24.9-2.2-34.6-10.2,2.7,12.2,5.6,24.4,8.7,36.5,5-11.5,14.1-20.7,26.2-24.8h0Z"/>
        <path d="M514.3,1925.9c14.6-.6,31.1-11.3,41.5-19.2,1.3-1,2.5-2,3.6-2.9-27-33.1-51.7-67.9-74-104.2-1.2.7-2.5,1.6-3.9,2.5-10.9,7.2-26.4,19.3-31.8,32.7-2.1,5.2-4.4,13.3-6.6,22.3-3.4,13.4-6.7,28.6-9.4,38.6-4.4,16.3-7.2,18-10.9,23.7-3.1,4.9-8.6,8.7-11.8,10.6l-2.4,1.4c0,0-.1,0-.1,0h0,0c-11,6.3-23.8,7.2-35.6,3.5,6.9,10.1,14.1,20.2,21.3,30.1.5-12.3,5.5-24.1,15.1-32.3h0s0,0,.2-.2l2-1.8c2.9-2.4,8.3-6.2,13.9-7.6,6.6-1.6,9.1-3.6,26-2.4,10.3.8,25.7,2.7,39.5,4,2,.2,4,.4,5.9.5,6.8.6,12.9.9,17.3.7h0Z"/>
        <path d="M589.3,2170.3c9.6,7.9,19.3,15.6,29.2,23.1-3.6-13.8-1.3-28.4,7.6-39.7-8.9,11.3-22.6,16.9-36.8,16.6h0Z"/>
        <path d="M437.6,2020c7.9,9.5,16,18.9,24.2,28.1-.9-14.2,4.1-28,15-37.4-10.9,9.4-25.4,12.3-39.2,9.3h0Z"/>
        <path d="M1401.2,2383.6c1.3,14.4-4.7,27.9-15.3,37.5,12.4-.9,24.9-2.1,37.2-3.4-12.2-7.5-20.6-19.6-22-34.1Z"/>
        <path d="M1541.4,2225.7c-41.2,10.7-83.1,18.6-125.6,23.7.2,1.4.4,2.9.7,4.6,2,12.9,6.5,32.1,16.5,42.6,3.9,4.1,10.3,9.5,17.5,15.2,10.8,8.6,23.3,18,31.2,24.6,13,10.8,13.4,14,17.1,19.7,3.1,4.9,4.3,11.4,4.8,15.1l.2,2.8h0c0,.1,0,.1,0,.1,1.2,12.7-3.4,24.7-11.8,34,12.3-2.1,24.5-4.4,36.7-6.9-11.2-5.5-19.9-15-23.5-27.3h0s0-.1,0-.2l-.8-2.6c-.9-3.6-2.2-10.1-1.1-15.8,1.3-6.6.5-9.8,8.6-24.6,5-9,13.1-22.3,20-34.3,1-1.8,2-3.5,2.9-5.1,3.3-6,6.2-11.4,7.8-15.5,5.5-13.5,2.7-32.8-.2-45.5-.4-1.6-.7-3.1-1.1-4.5h0Z"/>
        <path d="M2327.5,1659.1c13.8,4.8,23.6,16.1,27.8,29.8,4.4-11.9,8.6-23.8,12.5-35.8-11.9,8.1-26.6,10.8-40.4,6Z"/>
        <path d="M2293.5,1756.5h0s0,0,0,0c0,0-.1,0-.2,0l-2.5-.9c-3.5-1.3-9.5-4.1-13.5-8.3-4.6-4.9-7.7-6.1-15-21.3-4.5-9.3-10.6-23.6-16.3-36.2-.8-1.8-1.7-3.6-2.5-5.3-2.9-6.2-5.7-11.6-8.1-15.3-7.8-12.3-25.1-21.2-37.2-26.2-1.5-.6-3-1.2-4.3-1.7-4,10.6-8.2,21.1-12.7,31.5-12.2,29-25.9,57.2-40.8,84.6,1.2.7,2.6,1.4,4.1,2.1,11.7,5.9,29.9,13.2,44.1,11.2,5.6-.8,13.7-2.9,22.6-5.4,13.3-3.8,28.1-8.6,38.1-11.2,16.4-4.3,19.2-2.8,25.9-2.4,5.8.3,11.8,3.1,15.1,4.9l2.4,1.4c0,0,.1,0,.1,0h0c11,6.4,18.2,17.1,20.8,29.3,5.4-11.2,10.6-22.6,15.6-33.9-11,5.9-23.8,7.5-35.9,3.3h0Z"/>
        <path d="M2189.3,1936.1h0s-.1,0-.2-.1l-2.3-1.3c-3.2-2-8.6-5.8-11.7-10.7-3.6-5.7-6.4-7.4-10.7-23.8-2.6-9.9-5.9-25.2-9.2-38.6-.5-1.9-1-3.9-1.4-5.7-1.7-6.6-3.4-12.5-5-16.6-5.4-13.6-20.8-25.6-31.6-32.8-1.4-.9-2.7-1.7-3.9-2.5-22.4,36.2-47.3,70.8-74.5,103.8,1.1.9,2.3,1.8,3.6,2.9,10.4,8,26.9,18.7,41.4,19.4,5.6.3,14-.3,23.2-1.1,13.8-1.2,29.2-3.1,39.5-3.8,16.9-1.2,19.4.9,25.9,2.5,5.6,1.4,11,5.3,13.9,7.6l2.1,1.8c0,0,0,0,.1.1h0c9.5,8.3,14.5,20.1,14.9,32.4,7.3-9.9,14.5-19.9,21.5-30-11.8,3.6-24.6,2.7-35.6-3.7h0Z"/>
        <path d="M2241.1,1847c12.5,7.3,20,20.1,21.7,34.3,6.5-10.7,12.8-21.6,18.9-32.5-13.2,5.6-28.1,5.5-40.6-1.8h0Z"/>
        <path d="M2361.8,1560.3h0s-.1,0-.2,0l-2.7-.4c-3.7-.7-10.1-2.2-14.8-5.6-5.5-3.9-8.7-4.5-18.8-18.1-6.2-8.3-14.8-21.2-22.9-32.5-1.2-1.6-2.3-3.2-3.4-4.8-4.1-5.5-7.8-10.3-10.8-13.5-10-10.6-28.8-16.1-41.6-18.7-1.6-.3-3.1-.6-4.5-.9-7.3,42-17.5,83.5-30.4,124.2,1.4.4,2.9.9,4.5,1.3,12.6,3.5,31.8,7.3,45.4,2.6,5.3-1.8,12.9-5.4,21.1-9.6,12.3-6.2,26-13.7,35.3-18.2,15.2-7.3,18.3-6.4,25-7.3,5.7-.8,12.2.8,15.7,1.9l2.6.9c0,0,.1,0,.1,0h0c12.1,4.2,21.2,13.4,26.1,24.9,3.2-12.1,6.2-24.2,8.9-36.4-8.1,6.6-18,10.5-28.5,10.5s-4.1-.2-6.2-.4h0Z"/>
        <path d="M2409.4,1350.1c-5.4,2.8-11.3,4.4-17.6,4.7h-2.9c-3.7.2-10.4-.1-15.6-2.6-6.1-2.8-9.4-2.8-21.9-14.2-7.6-6.9-18.6-18-28.6-27.5-1.4-1.4-2.9-2.7-4.3-4-5-4.7-9.6-8.7-13.2-11.2-11.9-8.5-31.4-10.3-44.5-10.5-1.7,0-3.2,0-4.7,0,0,5.3.1,10.6.1,15.9,0,37.6-2.2,74.9-6.4,111.7,1.4.2,3,.3,4.6.4,13,1.1,32.7,1.2,45.2-6,4.9-2.8,11.7-7.8,18.9-13.4,10.9-8.5,22.9-18.4,31.2-24.5,13.6-10.1,16.8-9.7,23.2-11.9,5.5-1.9,12.1-1.5,15.8-1.1l2.8.4c0,0,.1,0,.1,0h0c12.5,1.8,23.1,9,30.1,19.2.8-12.2,1.4-24.4,1.8-36.7-4,4.7-8.8,8.6-14.2,11.3h0Z"/>
        <path d="M2376.7,1458.3c14.4,2.1,26.1,11.3,32.9,23.9,2-12.4,3.8-24.8,5.4-37.3-10.1,10.1-24,15.5-38.3,13.4h0Z"/>
        <path d="M1704.7,2315.7h0s0-.1-.1-.2l-1.2-2.4c-1.6-3.4-4.1-9.5-4.1-15.3,0-6.8-1.4-9.7,3.8-25.8,3.2-9.8,8.7-24.4,13.2-37.4.7-1.9,1.3-3.8,1.9-5.6,2.2-6.5,3.9-12.4,4.7-16.7,2.8-14.3-3.6-32.7-8.8-44.6-.7-1.5-1.3-2.9-1.9-4.2-13,6.2-26.2,12.1-39.5,17.8-26.1,11-52.5,20.8-79.3,29.5.4,1.4.9,2.8,1.5,4.4,4.4,12.3,12.5,30.1,24.2,38.5,4.6,3.3,11.9,7.4,20.1,11.6,12.2,6.4,26.3,13.2,35.3,18.2,14.8,8.2,15.8,11.2,20.5,16.1,4,4.2,6.4,10.4,7.6,13.9l.8,2.7c0,0,0,.1,0,.1h0c3.6,12.3,1.3,25-5.2,35.7,11.7-4.4,23.3-9.1,34.8-13.9-12.1-3.3-22.4-11-28.2-22.4h0Z"/>
        <path d="M185.6,1439c1.5,12.5,3.3,24.9,5.2,37.2,6.9-12.6,18.7-21.7,33-23.7-14.3,2-28.2-3.4-38.2-13.6Z"/>
        <path d="M1604.3,2345c4.1,14,.6,28.6-8.2,40,12.2-3.3,24.4-6.9,36.5-10.6-13.5-5-24.3-15.4-28.4-29.4Z"/>
        <path d="M1796.4,2268.7c6.6,12.9,6,27.8-.4,40.7,11.3-5.5,22.4-11.3,33.5-17.2-14.1-2.4-26.6-10.6-33.2-23.5Z"/>
        <path d="M2120.7,2015.1c10.9,9.4,15.8,23.3,14.8,37.5,8.3-9.2,16.4-18.5,24.4-28-13.9,2.9-28.4,0-39.2-9.5h0Z"/>
        <path d="M2053,2092.8h0s0,0,0,0c0,0,0,0-.2-.1l-2-1.8c-2.8-2.5-7.3-7.3-9.5-12.7-2.5-6.3-4.9-8.5-6-25.4-.7-10.3-1-25.9-1.7-39.7,0-2-.2-4-.3-5.9-.4-6.8-1-12.9-1.8-17.2-2.7-14.4-15.6-29.2-24.9-38.3-1.2-1.2-2.3-2.2-3.4-3.2-8.7,9.4-17.6,18.7-26.8,27.9-21.2,21.1-43.1,41.2-65.9,60.1.9,1.1,1.9,2.3,3,3.5,8.7,9.8,22.9,23.5,36.9,26.9,5.5,1.3,13.8,2.4,23,3.3,13.8,1.4,29.3,2.5,39.5,3.8,16.8,2.1,18.8,4.5,25,7.4,5.3,2.4,9.8,7.2,12.2,10.1l1.7,2.2c0,0,0,.1,0,.1h0c7.8,9.9,10.4,22.4,8.5,34.5,9-8.3,17.9-16.7,26.6-25.2-12.2,1.3-24.5-2-34.1-10.3h0Z"/>
        <path d="M1889.5,2220.9h0s0,0-.2-.2l-1.7-2.1c-2.2-3-5.8-8.6-6.9-14.3-1.2-6.6-3.2-9.2-1.1-26,1.2-10.2,3.9-25.6,5.9-39.3.3-2,.6-3.9.8-5.8.9-6.8,1.5-12.9,1.5-17.3,0-14.6-9.8-31.5-17.2-42.3-.9-1.4-1.8-2.6-2.7-3.8-34.3,25.4-70.2,48.4-107.7,68.9.7,1.2,1.5,2.6,2.3,4,6.7,11.3,18,27.3,31.1,33.3,5.1,2.3,13.1,5,21.9,7.6,13.2,4,28.3,8,38.1,11.2,16.1,5.2,17.7,8,23.2,12,4.7,3.4,8.2,9,10.1,12.2l1.3,2.5c0,0,0,.1,0,.1h0c5.8,11.3,6,24.1,1.7,35.8,10.5-6.5,20.9-13.1,31.2-19.9-6.2-.5-12.1-2.2-17.5-4.9-5.4-2.8-10.2-6.7-14.1-11.7h0Z"/>
        <path d="M1970.7,2157.4c8.9,11.4,11.1,26,7.4,39.7,9.9-7.5,19.7-15.1,29.3-22.9-14.2.3-27.8-5.4-36.7-16.8h0Z"/>
        <path d="M684,2036.7c1.1-1.2,2.1-2.4,3-3.5-21.4-18-42.1-36.9-62-56.8-10.3-10.3-20.4-20.9-30.2-31.6-1,1-2.2,2-3.4,3.2-9.4,9.1-22.4,24-25.2,38.2-1.1,5.5-1.7,13.9-2.2,23.1-.8,13.8-1.1,29.4-1.9,39.6-1.3,16.9-3.6,19.1-6.2,25.3-2.2,5.4-6.8,10.1-9.5,12.7l-2.1,1.8c0,0,0,0-.1.1h0c-9.6,8.2-21.9,11.5-34.1,10.2,8.7,8.6,17.5,17.1,26.5,25.4-1.9-12.2.9-24.6,8.7-34.5h0s0,0,0,0c0,0,0,0,.1-.2l1.7-2.1c2.4-2.9,7-7.7,12.2-10.1,6.2-2.8,8.2-5.3,25-7.2,10.2-1.2,25.8-2.2,39.5-3.6,2-.2,4-.4,5.9-.6,6.8-.8,12.9-1.6,17.1-2.6,14.2-3.4,28.4-17,37.1-26.7h0Z"/>
        <path d="M1796.7,483.7c.7-1.2,1.5-2.5,2.3-4,6.4-11.4,14.7-29.2,13.3-43.6-.5-5.6-2.2-13.8-4.4-22.8-3.2-13.5-7.2-28.5-9.3-38.6-3.5-16.5-1.9-19.3-1.2-26,.6-5.8,3.6-11.6,5.6-14.8l1.5-2.3c0,0,0-.1,0-.1h0c6.9-10.7,17.9-17.3,30.2-19.4-10.9-5.9-21.9-11.6-33.1-17.2,5.4,11.2,6.3,24.1,1.5,35.9h0s0,.1,0,.2l-1,2.5c-1.5,3.4-4.5,9.3-8.9,13.1-5.1,4.4-6.4,7.4-22,14-9.5,4-24.1,9.4-36.9,14.6-1.9.8-3.7,1.5-5.5,2.2-6.3,2.6-11.9,5.2-15.7,7.3-12.6,7.2-22.3,24.1-27.9,35.9-.7,1.5-1.4,2.9-1.9,4.3,39.3,17.2,77.1,36.8,113.4,58.9h0Z"/>
        <path d="M1707.6,292.1c5.4-13.5,17.2-22.8,31.1-26.4-.2-.1-.4-.2-.7-.3-11.4-4.8-22.9-9.5-34.5-13.9,7.5,12.2,9.5,27.1,4.1,40.6h0Z"/>
        <path d="M1511.6,363.7c-.4,1.6-.8,3.1-1.1,4.5,41.5,9.3,82.4,21.4,122.5,36.3.5-1.4,1-2.8,1.5-4.4,4.1-12.4,8.8-31.4,4.8-45.2-1.6-5.4-4.8-13.2-8.6-21.6-5.7-12.6-12.5-26.6-16.5-36.1-6.6-15.6-5.5-18.6-6.1-25.3-.5-5.8,1.4-12.1,2.7-15.6l1-2.6c0,0,0-.1,0-.1h0,0c4.8-11.9,14.4-20.5,26.2-24.9-11.9-3.8-23.9-7.3-36-10.7,7.5,10,10.9,22.5,8.4,35.1h0s0,.1,0,.2l-.5,2.7c-.8,3.6-2.7,10-6.3,14.5-4.2,5.3-4.9,8.5-18.9,17.9-8.5,5.8-21.9,13.8-33.5,21.3-1.7,1.1-3.3,2.2-4.9,3.2-5.7,3.8-10.7,7.3-14,10.2-11.1,9.5-17.4,27.9-20.7,40.6h0Z"/>
        <path d="M1509.3,233.4c2.8-14.3,12.5-25.6,25.5-31.8-12.3-2.6-24.7-5-37.2-7.2,9.7,10.6,14.4,24.8,11.6,39Z"/>
        <path d="M1303.6,213c0-14.3,7.3-27.1,18.7-35.6-7.2-.1-14.4-.2-21.6-.2s-10.4,0-15.6.1c11.3,8.6,18.5,21.4,18.5,35.7Z"/>
        <path d="M1942.2,592.5c.9-1.1,2-2.2,3.1-3.5,8.5-10,20-26,21.4-40.4.5-5.6.4-14,0-23.2-.6-13.8-1.7-29.4-1.9-39.6-.3-16.9,1.8-19.3,3.7-25.8,1.6-5.6,5.8-10.7,8.3-13.5l1.9-2c0,0,0,0,.1-.1h0c8.8-9.1,20.7-13.5,33-13.4-9.5-7.8-19.1-15.4-28.8-22.8,3.1,12,1.5,24.6-5.4,35.3h0s0,.1-.1.2l-1.5,2.3c-2.1,3.1-6.2,8.3-11.2,11.2-5.9,3.4-7.7,6-24.2,9.6-10.1,2.2-25.5,4.7-39,7.3-2,.4-3.9.8-5.8,1.1-6.7,1.4-12.7,2.8-16.8,4.2-13.8,4.7-26.6,19.5-34.3,30.1-1,1.3-1.9,2.6-2.7,3.7,35,24.1,68.4,50.6,100.2,79.4h0Z"/>
        <path d="M1457.5,357.9c.2-1.4.4-2.9.7-4.6,1.7-13,2.7-32.6-3.9-45.4-2.6-5-7.2-12-12.5-19.5-7.9-11.3-17.3-23.8-23-32.3-9.4-14.1-8.9-17.2-10.8-23.7-1.6-5.6-.9-12.1-.3-15.8l.5-2.7c0,0,0-.1,0-.1h0c2.4-12.5,10.2-22.7,20.8-29.2-12.2-1.4-24.5-2.6-36.8-3.5,9.1,8.4,14.6,19.9,14.6,32.6h0s0,.1,0,.2v2.7c-.1,3.7-.7,10.3-3.4,15.5-3.1,6-3.2,9.2-15.2,21.2-7.3,7.3-18.9,17.7-28.9,27.2-1.5,1.4-2.9,2.8-4.2,4.1-4.9,4.8-9.1,9.2-11.8,12.6-9.1,11.5-11.8,30.9-12.6,43.9-.1,1.7-.2,3.2-.2,4.7,42.9,1.3,85.3,5.4,127.2,12.3h0Z"/>
        <path d="M2247.7,927.8c-6.4-2.5-12.2-4.5-16.4-5.5-14.1-3.5-32.8,2-45,6.7-1.6.6-3,1.2-4.3,1.7,16.6,39.5,30.5,79.8,41.5,120.9,1.4-.4,2.9-.8,4.4-1.3,12.5-3.8,30.7-11.1,39.6-22.3,3.5-4.4,7.9-11.6,12.6-19.5,7-11.9,14.5-25.6,19.9-34.4,8.9-14.4,12-15.3,17.1-19.7,4.4-3.8,10.7-5.9,14.3-6.9l2.7-.6c0,0,.1,0,.1,0h0c12.5-3,25.1-.1,35.4,6.9-3.9-11.9-7.9-23.7-12.2-35.5-3.9,11.9-12.1,21.9-23.7,27.2h0s-.1,0-.2.1l-2.4,1.1c-3.4,1.4-9.7,3.6-15.5,3.3-6.8-.3-9.7.9-25.6-5-9.6-3.6-23.9-9.8-36.8-15-1.9-.7-3.7-1.5-5.5-2.2h0Z"/>
        <path d="M1148.9,357.1c41.9-6.7,84.3-10.6,127.3-11.6,0-1.4-.1-3-.2-4.7-.8-13.1-3.4-32.6-12.4-44-3.5-4.4-9.4-10.4-16-16.8-9.9-9.6-21.5-20.1-28.7-27.4-11.9-12-12-15.2-15.1-21.2-2.7-5.1-3.2-11.8-3.3-15.5v-2.8c0,0,0-.1,0-.2h0c0-12.7,5.7-24.1,14.8-32.5-12.3.9-24.6,2.1-36.8,3.4,10.5,6.6,18.2,16.8,20.6,29.3h0s0,.1,0,.2l.5,2.6c.6,3.7,1.2,10.3-.4,15.8-1.9,6.5-1.4,9.7-10.9,23.7-5.8,8.5-15.2,20.9-23.2,32.2-1.2,1.6-2.3,3.2-3.4,4.8-3.9,5.6-7.2,10.8-9.2,14.6-6.7,12.9-5.8,32.4-4.1,45.4.2,1.6.4,3.2.7,4.6h0Z"/>
        <path d="M2228.4,666.7c-7-10.3-14.2-20.4-21.6-30.5-.4,14.2-6.7,27.6-18.5,36,11.8-8.3,26.5-9.9,40.1-5.5Z"/>
        <path d="M2331.8,853.9c-5-11.5-10.2-23-15.6-34.4-3,14-11.8,26.1-25,32.1,13.2-6,28.1-4.7,40.7,2.3h0Z"/>
        <path d="M2091.4,502.6c-8.8-8.7-17.7-17.3-26.8-25.7,2.3,14-1.4,28.3-11.4,38.7,9.9-10.4,24.1-14.7,38.2-13h0Z"/>
        <path d="M2142.9,753c-14.6-.8-31.9,8.2-43,15.2-1.4.9-2.7,1.7-3.9,2.5,23.6,35.4,44.9,72.4,63.6,110.8,1.3-.6,2.7-1.3,4.2-2.1,11.6-6.1,28.1-16.7,34.7-29.5,2.6-5,5.6-12.9,8.7-21.5,4.6-13,9.4-27.9,13-37.5,6-15.8,8.9-17.2,13.1-22.6,3.6-4.5,9.4-7.8,12.7-9.5l2.5-1.2c0,0,.1,0,.1,0h0c11.6-5.3,24.4-4.9,35.9,0-6-10.8-12.2-21.5-18.5-32.2-.8,6.2-2.7,12-5.8,17.3s-7.2,9.9-12.4,13.6h0s0,0-.2.1l-2.2,1.6c-3.1,2.1-8.9,5.4-14.6,6.2-6.7,1-9.4,2.7-26.1,0-10.1-1.7-25.4-5.1-38.9-7.7-2-.4-3.9-.7-5.8-1.1-6.8-1.2-12.8-2.1-17.2-2.3h0Z"/>
        <path d="M209.4,1350.5s.1,0,.2,0l2.7-.4c3.7-.4,10.3-.7,15.8,1.2,6.4,2.2,9.6,1.9,23.1,12,8.2,6.2,20.2,16.2,31.1,24.7,1.6,1.2,3.1,2.4,4.7,3.6,5.5,4.2,10.4,7.7,14.2,9.9,12.6,7.4,32.2,7.3,45.2,6.2,1.6-.1,3.2-.3,4.6-.4-3.9-35.2-5.9-70.8-5.9-106.7s0-14,.2-21c-1.4,0-3,0-4.7,0-13.1.1-32.7,1.9-44.5,10.3-4.6,3.2-10.9,8.9-17.6,15.2-10.1,9.5-21.1,20.5-28.7,27.4-12.6,11.3-15.8,11.3-21.9,14.1-5.3,2.4-11.9,2.7-15.6,2.6h-2.8c0-.1-.1-.1-.1-.1h0c-12.6-.6-23.8-6.8-31.7-16.2.3,12.3.9,24.5,1.6,36.7,7.1-10.1,17.6-17.3,30.2-19.1h0Z"/>
        <path d="M1926.3,367.4c-10.4-7-20.8-13.8-31.4-20.4,5,13.4,4.1,28.2-3.8,40.4,7.8-12.1,21-19,35.2-20h0Z"/>
        <path d="M1981.2,629.9c30.1,30.6,58,62.8,83.5,96.7,1.1-.8,2.3-1.8,3.6-2.8,10.2-8.2,24.5-21.7,28.6-35.6,1.6-5.4,3.1-13.7,4.4-22.8,2.1-13.7,3.9-29.1,5.7-39.3,2.9-16.7,5.4-18.6,8.6-24.6,2.7-5.1,7.7-9.4,10.7-11.7l2.3-1.6c0,0,.1,0,.1,0h0c10.3-7.3,22.9-9.4,34.9-6.9-7.8-9.4-15.8-18.7-24-27.8.7,12.3-3.2,24.4-11.9,33.5h0s0,0-.1.2l-1.9,2c-2.7,2.6-7.7,7-13.1,8.8-6.4,2.2-8.7,4.5-25.6,4.8-10.3.2-25.9-.2-39.7-.2-2,0-4,0-5.9,0-6.9,0-13,.4-17.3,1-14.5,2-29.9,14.2-39.5,23.1-1.2,1.2-2.4,2.2-3.4,3.2h0Z"/>
        <path d="M312.6,846.3c-13.2-6.1-21.9-18.2-24.9-32.2-5.5,11.4-10.8,22.8-15.8,34.4,12.6-6.9,27.5-8.2,40.7-2.1h0Z"/>
        <path d="M269,941.3h0s.1,0,.2,0l2.6.6c3.6,1,9.9,3.2,14.2,7,5.1,4.5,8.2,5.3,17,19.8,5.3,8.8,12.7,22.5,19.7,34.5,1,1.7,2,3.4,3,5.1,3.5,5.9,6.8,11,9.5,14.5,9,11.5,27,18.7,39.5,22.5,1.6.5,3.1.9,4.5,1.3,11-40,24.7-79.4,41-118,.4-.9.8-1.8,1.2-2.7-1.3-.5-2.8-1.1-4.3-1.8-12.2-4.7-31-10.3-45-6.9-5.5,1.3-13.4,4.2-22,7.6-12.9,5-27.2,11.2-36.9,14.7-15.9,5.9-18.8,4.6-25.6,4.9-5.8.3-12-2-15.5-3.4l-2.5-1.2c0,0-.1,0-.1,0h0c-11.6-5.3-19.8-15.4-23.6-27.3-4.3,11.7-8.4,23.5-12.4,35.4,10.4-7,23-9.8,35.5-6.7h0Z"/>
        <path d="M355.7,752.6h0s.1,0,.2,0l2.5,1.1c3.4,1.7,9.1,5,12.6,9.5,4.2,5.3,7.1,6.8,12.9,22.6,3.6,9.7,8.2,24.5,12.8,37.6.7,1.9,1.3,3.8,2,5.6,2.3,6.4,4.6,12.1,6.6,16,6.6,13,23,23.5,34.5,29.6,1.5.8,2.9,1.5,4.1,2.1,19-38.3,40.4-75.2,64.2-110.5-1.2-.8-2.5-1.6-3.9-2.5-11.1-7-28.5-16.1-43-15.4-5.6.3-13.9,1.6-23,3.3-13.6,2.5-28.8,5.8-39,7.5-16.7,2.8-19.4,1-26.1,0-5.7-.8-11.4-4.2-14.5-6.3l-2.3-1.6c0,0-.1,0-.1,0h0c-10.3-7.4-16.4-18.7-17.9-31-6.4,10.6-12.6,21.3-18.7,32.1,11.5-4.8,24.3-5.1,35.9.2h0Z"/>
        <path d="M214.5,1246c-14.4-.7-26.9-8.6-34.9-20.4-.8,12.3-1.4,24.7-1.8,37.2,9.1-10.9,22.3-17.5,36.7-16.8h0Z"/>
        <path d="M416.5,667.5c-11.7-8.4-18-21.8-18.3-36-7.4,10-14.7,20.1-21.8,30.3,13.6-4.3,28.3-2.7,40.1,5.7Z"/>
        <path d="M219.7,1143.1h0s0,0,0,0h2.9c3.7.4,10.3,1.4,15.3,4.3,5.9,3.4,9.1,3.7,20.4,16.2,6.9,7.6,16.8,19.7,25.8,30.1,1.3,1.5,2.6,3,3.9,4.4,4.6,5.1,8.8,9.6,12.1,12.4,11,9.6,30.2,13.3,43.2,14.7,1.7.2,3.2.3,4.6.4,3.3-42.7,9.4-84.9,18.3-126.5-1.4-.3-2.9-.6-4.5-.9-12.9-2.3-32.4-4.3-45.5,1.7-5.1,2.3-12.3,6.7-20.1,11.6-11.7,7.4-24.6,16.1-33.4,21.4-14.5,8.8-17.6,8.1-24.2,9.7-5.6,1.4-12.2.4-15.8-.4l-2.7-.7c0,0-.1,0-.1,0h0c-12.4-3-22.3-11.3-28.2-22.2-2,12.2-3.8,24.5-5.3,36.8,8.9-8.7,20.6-13.8,33.3-13.1h0Z"/>
        <path d="M1097.7,232.2c-2.7-14.3,2.1-28.4,11.8-38.9-12.4,2.1-24.8,4.5-37.2,7,12.9,6.2,22.6,17.6,25.3,31.9h0Z"/>
        <path d="M244.5,1041.5c-14.1-3.5-25-13.8-30.6-27.1-3.2,12.2-6.2,24.5-9,36.9,11.1-9.2,25.4-13.3,39.6-9.8Z"/>
        <path d="M802,328.7h0s0,.1.1.2l1.5,2.3c1.9,3.2,5,9.1,5.5,14.9.6,6.7,2.3,9.5-1.3,26-2.2,10.1-6.3,25.1-9.6,38.5-.5,2-.9,3.9-1.3,5.7-1.5,6.7-2.7,12.7-3.1,17-1.5,14.5,6.7,32.3,13.1,43.7.8,1.4,1.6,2.8,2.3,4,36.4-21.9,74.4-41.3,113.8-58.3-.6-1.3-1.2-2.8-1.9-4.3-5.6-11.8-15.3-28.8-27.8-36-4.9-2.8-12.6-6.2-21.1-9.7-12.8-5.2-27.4-10.7-36.8-14.8-15.5-6.7-16.8-9.7-21.9-14.1-4.4-3.8-7.4-9.7-8.8-13.1l-1-2.6c0,0,0-.1,0-.1h0c-4.7-11.9-3.7-24.7,1.7-35.9-11.1,5.5-22.2,11.2-33.1,17,12.2,2.1,23.2,8.8,30.1,19.6h0Z"/>
        <path d="M899.2,290c-5.4-13.5-3.3-28.4,4.3-40.6-11.8,4.5-23.5,9.1-35.2,14,13.9,3.7,25.6,13,30.9,26.5Z"/>
        <path d="M973.1,402.8c40.2-14.7,81.1-26.6,122.7-35.7-.3-1.4-.7-2.9-1.1-4.5-3.2-12.7-9.6-31.2-20.4-40.7-4.2-3.7-11.2-8.5-18.9-13.5-11.6-7.5-24.9-15.7-33.4-21.5-14-9.5-14.7-12.7-18.8-18-3.6-4.5-5.4-10.9-6.2-14.6l-.5-2.7c0,0,0-.1,0-.1h0c-2.4-12.6,1.1-25.1,8.6-35.1-12.1,3.3-24.1,6.8-36.1,10.5,11.7,4.4,21.3,13.1,26.1,25h0s0,.1,0,.2l1,2.5c1.3,3.5,3.2,9.9,2.6,15.6-.7,6.7.4,9.8-6.2,25.3-4.1,9.5-11,23.5-16.7,36-.8,1.8-1.6,3.6-2.4,5.4-2.8,6.3-5,11.9-6.3,16.1-4.2,13.9.5,32.8,4.5,45.2.5,1.6,1,3,1.5,4.4h0Z"/>
        <path d="M476.5,583.7h.2c0,.1,2.2,1.7,2.2,1.7,3,2.3,8,6.6,10.6,11.8,3.1,6,5.6,8,8.4,24.7,1.7,10.2,3.5,25.7,5.4,39.3.3,2,.6,3.9.9,5.8,1.1,6.8,2.2,12.8,3.4,17,4.1,14,18.3,27.5,28.4,35.7,1.3,1,2.5,2,3.6,2.8,25.7-33.7,53.7-65.9,84-96.3-1-1-2.2-2.1-3.4-3.2-9.6-9-25-21.2-39.3-23.3-5.6-.8-14-1.1-23.2-1.1-13.8,0-29.4.3-39.7,0-16.9-.5-19.2-2.7-25.6-5-5.5-1.9-10.5-6.3-13.1-8.9l-1.9-2c0,0,0,0-.1-.1h0c-8.7-9.2-12.5-21.3-11.8-33.6-8.2,9.1-16.2,18.3-24.1,27.7,3.2-.7,6.4-1,9.6-1,9,0,17.8,2.6,25.3,8h0Z"/>
        <path d="M552.3,511.6c-9.9-10.4-13.5-24.7-11.2-38.7-9.1,8.4-18.1,16.9-26.9,25.5,14.1-1.6,28.2,2.8,38.1,13.2Z"/>
        <path d="M715.2,384.2c-7.8-12.2-8.6-27-3.6-40.4-10.6,6.6-21.2,13.3-31.5,20.2,14.2,1,27.3,8,35.1,20.2Z"/>
        <path d="M627.1,440.6s0,0,.2.2l1.9,2c2.5,2.8,6.6,8,8.2,13.5,1.9,6.5,4,8.9,3.6,25.8-.3,10.3-1.5,25.9-2.1,39.6,0,2-.2,4-.2,5.9-.2,6.8-.2,13,.2,17.3,1.3,14.6,12.8,30.5,21.2,40.5,1.1,1.3,2.1,2.5,3.1,3.5,31.9-28.6,65.4-54.9,100.6-78.9-.8-1.2-1.7-2.4-2.7-3.8-7.7-10.6-20.5-25.5-34.2-30.3-5.3-1.8-13.5-3.7-22.5-5.5-13.5-2.7-28.9-5.3-39-7.5-16.5-3.6-18.3-6.3-24.2-9.7-5-2.9-9.1-8.1-11.2-11.2l-1.5-2.3c0,0,0-.1,0-.1h0c-6.8-10.7-8.3-23.3-5.2-35.3-9.8,7.4-19.4,15-29,22.7,12.3-.1,24.3,4.4,33,13.5h0Z"/>
      </g>
    </g>
  </g>
</svg>