<?xml version="1.0" encoding="UTF-8"?>
<svg id="Layer_1" xmlns="http://www.w3.org/2000/svg" viewBox="0 0 200 200">
  <defs>
    <style>
      .cls-1 {
        fill: #fff;
      }
    </style>
  </defs>
  <path class="cls-1" d="M190.64,58.81H9.36c-3.3,0-5.97-3.62-5.97-8.08h0c0-4.46,2.67-8.08,5.97-8.08h181.29c3.3,0,5.97,3.62,5.97,8.08h0c0,4.46-2.67,8.08-5.97,8.08Z"/>
  <path class="cls-1" d="M190.64,104.84H9.36c-3.3,0-5.97-3.62-5.97-8.08h0c0-4.46,2.67-8.08,5.97-8.08h181.29c3.3,0,5.97,3.62,5.97,8.08h0c0,4.46-2.67,8.08-5.97,8.08Z"/>
  <path class="cls-1" d="M190.64,157.36H9.36c-3.3,0-5.97-3.62-5.97-8.08h0c0-4.46,2.67-8.08,5.97-8.08h181.29c3.3,0,5.97,3.62,5.97,8.08h0c0,4.46-2.67,8.08-5.97,8.08Z"/>
</svg>